<svg width="29" height="28" viewBox="0 0 29 28" fill="none" xmlns="http://www.w3.org/2000/svg">
<path fill-rule="evenodd" clip-rule="evenodd" d="M8.98488 1.2435C10.3534 1.1805 10.7897 1.1665 14.2757 1.1665C17.7617 1.1665 18.198 1.18167 19.5654 1.2435C20.9327 1.30534 21.866 1.5235 22.6827 1.83967C23.5379 2.16284 24.3137 2.668 24.9554 3.32134C25.6087 3.96184 26.1127 4.7365 26.4347 5.59284C26.752 6.4095 26.969 7.34284 27.032 8.70784C27.095 10.0787 27.109 10.515 27.109 13.9998C27.109 17.4858 27.0939 17.9222 27.032 19.2907C26.9702 20.6557 26.752 21.589 26.4347 22.4057C26.1127 23.2621 25.6079 24.0381 24.9554 24.6795C24.3137 25.3328 23.5379 25.8368 22.6827 26.1588C21.866 26.4762 20.9327 26.6932 19.5677 26.7562C18.198 26.8192 17.7617 26.8332 14.2757 26.8332C10.7897 26.8332 10.3534 26.818 8.98488 26.7562C7.61988 26.6943 6.68655 26.4762 5.86988 26.1588C5.01346 25.8368 4.23751 25.332 3.59605 24.6795C2.94316 24.0386 2.43792 23.263 2.11555 22.4068C1.79938 21.5902 1.58238 20.6568 1.51938 19.2918C1.45638 17.921 1.44238 17.4847 1.44238 13.9998C1.44238 10.5138 1.45755 10.0775 1.51938 8.71017C1.58122 7.34284 1.79938 6.4095 2.11555 5.59284C2.43839 4.7366 2.94402 3.96104 3.59722 3.32017C4.23776 2.66742 5.01293 2.16219 5.86872 1.83967C6.68538 1.5235 7.61871 1.3065 8.98371 1.2435H8.98488ZM19.4615 3.5535C18.1082 3.49167 17.7022 3.47884 14.2757 3.47884C10.8492 3.47884 10.4432 3.49167 9.08988 3.5535C7.83805 3.61067 7.15905 3.8195 6.70638 3.99567C6.10788 4.229 5.67972 4.5055 5.23055 4.95467C4.80477 5.3689 4.47709 5.87317 4.27155 6.4305C4.09538 6.88317 3.88655 7.56217 3.82938 8.814C3.76755 10.1673 3.75472 10.5733 3.75472 13.9998C3.75472 17.4263 3.76755 17.8323 3.82938 19.1857C3.88655 20.4375 4.09538 21.1165 4.27155 21.5692C4.47688 22.1257 4.80472 22.6308 5.23055 23.045C5.64472 23.4708 6.14988 23.7987 6.70638 24.004C7.15905 24.1802 7.83805 24.389 9.08988 24.4462C10.4432 24.508 10.848 24.5208 14.2757 24.5208C17.7034 24.5208 18.1082 24.508 19.4615 24.4462C20.7134 24.389 21.3924 24.1802 21.845 24.004C22.4435 23.7707 22.8717 23.4942 23.3209 23.045C23.7467 22.6308 24.0745 22.1257 24.2799 21.5692C24.456 21.1165 24.6649 20.4375 24.722 19.1857C24.7839 17.8323 24.7967 17.4263 24.7967 13.9998C24.7967 10.5733 24.7839 10.1673 24.722 8.814C24.6649 7.56217 24.456 6.88317 24.2799 6.4305C24.0465 5.832 23.77 5.40384 23.3209 4.95467C22.9066 4.52892 22.4024 4.20125 21.845 3.99567C21.3924 3.8195 20.7134 3.61067 19.4615 3.5535V3.5535ZM12.6365 17.956C13.552 18.3371 14.5713 18.3885 15.5205 18.1015C16.4696 17.8145 17.2897 17.2069 17.8406 16.3825C18.3915 15.558 18.6391 14.5678 18.5411 13.5811C18.4431 12.5944 18.0056 11.6723 17.3032 10.9723C16.8555 10.5249 16.3141 10.1823 15.7181 9.96917C15.1221 9.75606 14.4862 9.67776 13.8563 9.73989C13.2264 9.80202 12.6181 10.003 12.0752 10.3285C11.5322 10.6539 11.0682 11.0957 10.7166 11.622C10.3649 12.1483 10.1343 12.746 10.0413 13.3721C9.94836 13.9982 9.99539 14.6372 10.179 15.2429C10.3626 15.8487 10.6783 16.4062 11.1032 16.8753C11.5282 17.3445 12.0518 17.7135 12.6365 17.956ZM9.61138 9.3355C10.2239 8.72297 10.9511 8.23709 11.7514 7.90559C12.5517 7.57409 13.4095 7.40347 14.2757 7.40347C15.142 7.40347 15.9997 7.57409 16.8 7.90559C17.6003 8.23709 18.3275 8.72297 18.94 9.3355C19.5526 9.94803 20.0385 10.6752 20.37 11.4755C20.7015 12.2758 20.8721 13.1336 20.8721 13.9998C20.8721 14.8661 20.7015 15.7238 20.37 16.5242C20.0385 17.3245 19.5526 18.0516 18.94 18.6642C17.703 19.9012 16.0252 20.5962 14.2757 20.5962C12.5262 20.5962 10.8484 19.9012 9.61138 18.6642C8.37432 17.4271 7.67935 15.7493 7.67935 13.9998C7.67935 12.2504 8.37432 10.5726 9.61138 9.3355V9.3355ZM22.335 8.38584C22.4868 8.24265 22.6083 8.07046 22.6924 7.87947C22.7764 7.68848 22.8213 7.48257 22.8244 7.27392C22.8274 7.06528 22.7886 6.85814 22.7101 6.66478C22.6317 6.47142 22.5152 6.29577 22.3677 6.14821C22.2201 6.00066 22.0445 5.88422 21.8511 5.80577C21.6577 5.72733 21.4506 5.68847 21.242 5.69152C21.0333 5.69456 20.8274 5.73943 20.6364 5.82348C20.4454 5.90753 20.2732 6.02905 20.13 6.18084C19.8516 6.47604 19.6991 6.86814 19.705 7.27392C19.7109 7.6797 19.8748 8.06719 20.1617 8.35415C20.4487 8.64111 20.8362 8.80494 21.242 8.81085C21.6477 8.81677 22.0398 8.66431 22.335 8.38584V8.38584Z" fill="#FCFCFC"/>
</svg>
