<svg width="29" height="28" viewBox="0 0 29 28" fill="none" xmlns="http://www.w3.org/2000/svg">
<path d="M6.62967 27.999V9.10748H0.627559V27.999H6.62967ZM3.62939 6.52661C5.72243 6.52661 7.02525 5.07595 7.02525 3.26312C6.98625 1.40941 5.72251 -0.000976562 3.66911 -0.000976562C1.61603 -0.000976562 0.273438 1.40944 0.273438 3.26312C0.273438 5.07604 1.57593 6.52661 3.59021 6.52661H3.6292H3.62939ZM9.95182 27.999H15.9539V17.4491C15.9539 16.8844 15.9929 16.3204 16.1514 15.9168C16.5853 14.7887 17.5729 13.6203 19.231 13.6203C21.4029 13.6203 22.2718 15.3527 22.2718 17.8923V27.9989H28.2735V17.1667C28.2735 11.3639 25.3124 8.66396 21.3633 8.66396C18.1254 8.66396 16.7038 10.5574 15.914 11.847H15.9541V9.10709H9.95195C10.0307 10.8798 9.95195 27.9987 9.95195 27.9987L9.95182 27.999Z" fill="#FCFCFC"/>
</svg>