<svg width="29" height="28" viewBox="0 0 29 28" fill="none" xmlns="http://www.w3.org/2000/svg">
<path d="M27.8585 5.75976C26.8843 6.19143 25.8378 6.48309 24.7377 6.61493C25.8728 5.93568 26.7221 4.86664 27.127 3.60726C26.0605 4.24075 24.8932 4.68665 23.676 4.92559C22.8574 4.0516 21.7732 3.47231 20.5917 3.27765C19.4102 3.08299 18.1974 3.28385 17.1418 3.84906C16.0861 4.41426 15.2466 5.31218 14.7535 6.40341C14.2605 7.49465 14.1415 8.71814 14.415 9.88393C12.254 9.77542 10.1399 9.21373 8.20999 8.23532C6.28009 7.2569 4.57748 5.88362 3.21266 4.20459C2.746 5.00959 2.47766 5.94293 2.47766 6.93693C2.47714 7.83176 2.6975 8.71288 3.11919 9.50212C3.54088 10.2914 4.15085 10.9643 4.895 11.4613C4.03199 11.4338 3.18802 11.2006 2.43333 10.7811V10.8511C2.43324 12.1061 2.86737 13.3225 3.66204 14.2939C4.45672 15.2653 5.563 15.9318 6.79316 16.1804C5.99258 16.3971 5.15322 16.429 4.3385 16.2738C4.68558 17.3536 5.36166 18.298 6.27209 18.9745C7.18253 19.6511 8.28173 20.026 9.41583 20.0468C7.49064 21.5581 5.11303 22.3779 2.6655 22.3743C2.23194 22.3744 1.79875 22.3491 1.36816 22.2984C3.85255 23.8958 6.74456 24.7436 9.69816 24.7403C19.6965 24.7403 25.1623 16.4593 25.1623 9.27726C25.1623 9.04393 25.1565 8.80826 25.146 8.57493C26.2092 7.80606 27.1269 6.85397 27.8562 5.76326L27.8585 5.75976V5.75976Z" fill="#FCFCFC"/>
</svg>
