<svg width="255" height="68" viewBox="0 0 255 68" fill="none" xmlns="http://www.w3.org/2000/svg">
<path d="M43.5249 46.56C36.3969 46.56 29.1609 44.832 27.0009 37.92H88.4529C88.4529 9.624 71.2809 0.119998 44.6049 0.119998C18.1449 0.119998 0.540938 9.624 0.540938 33.6C0.540938 57.576 18.1449 67.08 43.5249 67.08C70.2009 67.08 84.1329 58.872 87.3729 41.7H61.9929C56.7009 45.912 52.9209 46.56 43.5249 46.56ZM44.4969 18.48C51.4089 18.48 57.8889 19.128 60.8049 24.96H28.1889C31.1049 19.128 37.5849 18.48 44.4969 18.48ZM144.711 1.2L127.431 46.452L110.043 1.2H81.9628L108.963 66H145.791L172.791 1.2H144.711ZM210.402 67.08C237.942 67.08 254.466 57.576 254.466 33.6C254.466 9.624 237.942 0.119998 210.402 0.119998C182.862 0.119998 166.338 9.624 166.338 33.6C166.338 57.576 182.862 67.08 210.402 67.08ZM210.402 45.48C198.846 45.48 192.258 43.104 192.258 33.6C192.258 24.096 198.846 21.72 210.402 21.72C221.958 21.72 228.546 24.096 228.546 33.6C228.546 43.104 221.958 45.48 210.402 45.48Z" fill="white"/>
</svg>
