<svg width="240" height="28" viewBox="0 0 240 28" fill="none" xmlns="http://www.w3.org/2000/svg">
<line x1="0.5" y1="15.5" x2="103.5" y2="15.5" stroke="url(#paint0_linear)" stroke-linecap="round"/>
<line x1="0.5" y1="-0.5" x2="103.5" y2="-0.5" transform="matrix(-1 0 0 1 240 16)" stroke="url(#paint1_linear)" stroke-linecap="round"/>
<path d="M116.329 20.144C115.476 20.144 114.708 19.9573 114.025 19.584C113.342 19.2 112.804 18.6613 112.409 17.968C112.025 17.2747 111.833 16.4747 111.833 15.568C111.833 14.6613 112.03 13.8613 112.425 13.168C112.83 12.4747 113.38 11.9413 114.073 11.568C114.766 11.184 115.54 10.992 116.393 10.992C117.246 10.992 118.02 11.184 118.713 11.568C119.406 11.9413 119.95 12.4747 120.345 13.168C120.75 13.8613 120.953 14.6613 120.953 15.568C120.953 16.4747 120.745 17.2747 120.329 17.968C119.924 18.6613 119.369 19.2 118.665 19.584C117.972 19.9573 117.193 20.144 116.329 20.144ZM116.329 18.192C116.734 18.192 117.113 18.096 117.465 17.904C117.828 17.7013 118.116 17.4027 118.329 17.008C118.542 16.6133 118.649 16.1333 118.649 15.568C118.649 14.7253 118.425 14.08 117.977 13.632C117.54 13.1733 117.001 12.944 116.361 12.944C115.721 12.944 115.182 13.1733 114.745 13.632C114.318 14.08 114.105 14.7253 114.105 15.568C114.105 16.4107 114.313 17.0613 114.729 17.52C115.156 17.968 115.689 18.192 116.329 18.192ZM125.586 12.512C125.874 12.0427 126.248 11.6747 126.706 11.408C127.176 11.1413 127.709 11.008 128.306 11.008V13.36H127.714C127.01 13.36 126.477 13.5253 126.114 13.856C125.762 14.1867 125.586 14.7627 125.586 15.584V20H123.346V11.136H125.586V12.512Z" fill="#B0B0B0"/>
<defs>
<linearGradient id="paint0_linear" x1="104" y1="16.9999" x2="-50.5" y2="16.9999" gradientUnits="userSpaceOnUse">
<stop stop-color="#5F2EEA"/>
<stop offset="1" stop-color="#121212" stop-opacity="0"/>
</linearGradient>
<linearGradient id="paint1_linear" x1="104" y1="0.999867" x2="-50.5" y2="0.999867" gradientUnits="userSpaceOnUse">
<stop stop-color="#5F2EEA"/>
<stop offset="1" stop-color="#121212" stop-opacity="0"/>
</linearGradient>
</defs>
</svg>
