<svg width="545" height="31" viewBox="0 0 545 31" fill="none" xmlns="http://www.w3.org/2000/svg">
<path d="M31.2554 4.8H0.295422V10.236H12.5354V30H19.0154V10.236H31.2554V4.8ZM51.8899 8.436C46.7419 8.436 42.5659 10.128 39.5419 12.504V1.2H33.3859V30H39.5419V18.12C41.4499 15.888 45.9139 13.764 50.0539 13.764C55.1299 13.764 56.6419 16.104 56.6419 20.604V30H62.8339L62.9059 18.264C62.8339 10.452 57.5419 8.436 51.8899 8.436ZM79.3812 25.356C75.2772 25.356 72.0372 24.24 71.3532 20.856H94.2492C94.2492 11.208 87.8052 8.436 79.7412 8.436C71.1372 8.436 65.0532 11.604 65.0532 19.416C65.0532 27.192 71.3172 30.36 79.3812 30.36C87.2292 30.36 92.4852 27.804 93.8892 22.404H87.7692C86.2212 24.564 83.6292 25.356 79.3812 25.356ZM79.7052 13.116C83.5932 13.116 86.6172 13.944 87.6612 16.932H71.5692C72.5412 13.944 75.4932 13.116 79.7052 13.116ZM140.077 10.236V4.8H113.437V30H119.917V22.116H137.917V16.644H119.917V10.236H140.077ZM165.769 8.796V20.676C163.861 22.908 159.397 25.032 155.257 25.032C150.181 25.032 148.669 22.692 148.669 18.192V8.796H142.477L142.405 20.532C142.477 28.344 147.769 30.36 153.421 30.36C158.569 30.36 162.745 28.668 165.769 26.292V30H171.925V8.796H165.769ZM196.1 13.944V8.796H186.056V2.64L179.864 4.404V8.796H174.284V13.944H179.864V23.628C179.864 28.308 183.392 30.36 188.864 30.36C191.708 30.36 194.048 30.18 196.1 29.82V24.852C193.616 25.212 192.536 25.212 190.592 25.212C186.848 25.212 186.056 24.168 186.056 20.064V13.944H196.1ZM221.772 8.796V20.676C219.864 22.908 215.4 25.032 211.26 25.032C206.184 25.032 204.672 22.692 204.672 18.192V8.796H198.48L198.408 20.532C198.48 28.344 203.772 30.36 209.424 30.36C214.572 30.36 218.748 28.668 221.772 26.292V30H227.928V8.796H221.772ZM247.851 8.436C243.891 8.436 240.147 9.552 236.979 12.396V8.796H230.823V30H236.979V17.292C240.723 14.376 244.683 13.584 248.139 13.584C249.939 13.584 251.559 13.8 253.575 14.304V9.156C252.135 8.796 250.371 8.436 247.851 8.436ZM268.487 25.356C264.383 25.356 261.143 24.24 260.459 20.856H283.355C283.355 11.208 276.911 8.436 268.847 8.436C260.243 8.436 254.159 11.604 254.159 19.416C254.159 27.192 260.423 30.36 268.487 30.36C276.335 30.36 281.591 27.804 282.995 22.404H276.875C275.327 24.564 272.735 25.356 268.487 25.356ZM268.811 13.116C272.699 13.116 275.723 13.944 276.767 16.932H260.675C261.647 13.944 264.599 13.116 268.811 13.116ZM316.87 30.36C325.618 30.36 331.558 27.192 331.558 19.416C331.558 11.604 325.618 8.436 316.87 8.436C308.086 8.436 302.182 11.604 302.182 19.416C302.182 27.192 308.086 30.36 316.87 30.36ZM316.87 25.212C311.146 25.212 308.338 23.808 308.338 19.416C308.338 14.988 311.146 13.584 316.87 13.584C322.558 13.584 325.366 14.988 325.366 19.416C325.366 23.808 322.558 25.212 316.87 25.212ZM348.654 5.376C350.238 5.376 351.678 5.448 353.082 5.556V1.2C349.95 0.839998 348.834 0.839998 346.71 0.839998C340.518 0.839998 337.926 2.892 337.926 7.212V8.796H332.346V13.944H337.926V30H344.118V13.944H353.082V8.796H344.118C344.226 6.132 345.126 5.376 348.654 5.376ZM398.897 9.948V4.8H372.257V30H398.897V24.852H378.737V19.74H398.897V15.06H378.737V9.948H398.897ZM423.669 8.796L415.389 25.644L407.073 8.796H400.233L410.961 30H419.745L430.509 8.796H423.669ZM443.741 25.356C439.637 25.356 436.397 24.24 435.713 20.856H458.609C458.609 11.208 452.165 8.436 444.101 8.436C435.497 8.436 429.413 11.604 429.413 19.416C429.413 27.192 435.677 30.36 443.741 30.36C451.589 30.36 456.845 27.804 458.249 22.404H452.129C450.581 24.564 447.989 25.356 443.741 25.356ZM444.065 13.116C447.953 13.116 450.977 13.944 452.021 16.932H435.929C436.901 13.944 439.853 13.116 444.065 13.116ZM479.46 8.436C474.312 8.436 470.136 10.128 467.112 12.504V8.796H460.956V30H467.112V18.12C469.02 15.888 473.484 13.764 477.624 13.764C482.7 13.764 484.212 16.104 484.212 20.604V30H490.404L490.476 18.264C490.404 10.452 485.112 8.436 479.46 8.436ZM513.42 13.944V8.796H503.376V2.64L497.184 4.404V8.796H491.604V13.944H497.184V23.628C497.184 28.308 500.712 30.36 506.184 30.36C509.028 30.36 511.368 30.18 513.42 29.82V24.852C510.936 25.212 509.856 25.212 507.912 25.212C504.168 25.212 503.376 24.168 503.376 20.064V13.944H513.42ZM515.405 22.548C515.405 29.316 522.965 30.36 531.137 30.36C539.309 30.36 544.709 29.316 544.709 23.34C544.709 17.688 539.057 17.472 530.777 16.86C523.469 16.32 522.353 16.104 522.353 14.772C522.353 13.548 524.009 13.116 529.841 13.116C535.565 13.116 537.797 13.548 537.797 15.312H543.989C543.989 9.48 538.193 8.436 530.201 8.436C522.641 8.436 516.161 9.48 516.161 15.024C516.161 20.136 520.733 20.856 530.057 21.396C537.509 21.864 538.517 21.972 538.517 23.592C538.517 25.248 537.437 25.68 530.777 25.68C523.901 25.68 521.561 24.816 521.561 22.548H515.405Z" fill="white"/>
</svg>
