<svg width="23" height="23" viewBox="0 0 23 23" fill="none" xmlns="http://www.w3.org/2000/svg">
<path d="M15.2676 4.96509V7.69405C14.1811 7.13898 12.9466 6.94246 11.7414 7.1327C10.5362 7.32294 9.42222 7.89015 8.55946 8.75291C7.6967 9.61567 7.12949 10.7296 6.93925 11.9348C6.74901 13.14 6.94553 14.3745 7.5006 15.4611H3.19724C2.50131 15.4611 1.83389 15.1846 1.34179 14.6925C0.849698 14.2004 0.573242 13.533 0.573242 12.8371V4.96509H15.2676Z" fill="currentColor" fill-opacity="currentOpacity"/>
<path d="M12.6436 0.766724C13.3396 0.766724 14.007 1.04318 14.4991 1.53527C14.9912 2.02737 15.2676 2.69479 15.2676 3.39072V3.91552H0.573242V3.39072C0.573242 2.69479 0.849698 2.02737 1.34179 1.53527C1.83389 1.04318 2.50131 0.766724 3.19724 0.766724H12.6436Z" fill="currentColor" fill-opacity="currentOpacity"/>
<path d="M17.3668 12.8372C17.3668 14.0899 16.8692 15.2912 15.9834 16.177C15.0976 17.0628 13.8963 17.5604 12.6436 17.5604C11.3909 17.5604 10.1896 17.0628 9.3038 16.177C8.41803 15.2912 7.92041 14.0899 7.92041 12.8372C7.92041 11.5845 8.41803 10.3832 9.3038 9.49741C10.1896 8.61164 11.3909 8.11401 12.6436 8.11401C13.8963 8.11401 15.0976 8.61164 15.9834 9.49741C16.8692 10.3832 17.3668 11.5845 17.3668 12.8372V12.8372ZM13.1684 10.738C13.1684 10.5988 13.1131 10.4653 13.0147 10.3669C12.9163 10.2685 12.7828 10.2132 12.6436 10.2132C12.5044 10.2132 12.3709 10.2685 12.2725 10.3669C12.1741 10.4653 12.1188 10.5988 12.1188 10.738V12.3124H10.5444C10.4052 12.3124 10.2717 12.3677 10.1733 12.4661C10.0749 12.5645 10.0196 12.698 10.0196 12.8372C10.0196 12.9764 10.0749 13.1099 10.1733 13.2083C10.2717 13.3067 10.4052 13.362 10.5444 13.362H12.1188V14.9364C12.1188 15.0756 12.1741 15.2091 12.2725 15.3075C12.3709 15.4059 12.5044 15.4612 12.6436 15.4612C12.7828 15.4612 12.9163 15.4059 13.0147 15.3075C13.1131 15.2091 13.1684 15.0756 13.1684 14.9364V13.362H14.7428C14.882 13.362 15.0155 13.3067 15.1139 13.2083C15.2123 13.1099 15.2676 12.9764 15.2676 12.8372C15.2676 12.698 15.2123 12.5645 15.1139 12.4661C15.0155 12.3677 14.882 12.3124 14.7428 12.3124H13.1684V10.738Z" fill="currentColor" fill-opacity="currentOpacity"/>
</svg>
