<svg width="23" height="23" viewBox="0 0 23 23" fill="none" xmlns="http://www.w3.org/2000/svg">
<g clip-path="url(#clip0)">
<path d="M4.09053 0.849854C4.2238 0.849854 4.3516 0.902792 4.44583 0.997024C4.54007 1.09126 4.59301 1.21906 4.59301 1.35232V1.85479H12.6325V1.35232C12.6325 1.21906 12.6855 1.09126 12.7797 0.997024C12.8739 0.902792 13.0017 0.849854 13.135 0.849854C13.2683 0.849854 13.3961 0.902792 13.4903 0.997024C13.5845 1.09126 13.6375 1.21906 13.6375 1.35232V1.85479H14.6424C15.1755 1.85479 15.6867 2.06655 16.0636 2.44347C16.4405 2.8204 16.6523 3.33162 16.6523 3.86468V14.919C16.6523 15.4521 16.4405 15.9633 16.0636 16.3402C15.6867 16.7172 15.1755 16.9289 14.6424 16.9289H2.58312C2.05007 16.9289 1.53885 16.7172 1.16192 16.3402C0.784997 15.9633 0.573242 15.4521 0.573242 14.919V3.86468C0.573242 3.33162 0.784997 2.8204 1.16192 2.44347C1.53885 2.06655 2.05007 1.85479 2.58312 1.85479H3.58806V1.35232C3.58806 1.21906 3.641 1.09126 3.73523 0.997024C3.82947 0.902792 3.95727 0.849854 4.09053 0.849854V0.849854ZM14.0937 3.86468H3.13082C2.82933 3.86468 2.58312 4.08978 2.58312 4.36715V5.37209C2.58312 5.64945 2.82833 5.87456 3.13082 5.87456H14.0947C14.3962 5.87456 14.6424 5.64945 14.6424 5.37209V4.36715C14.6424 4.08978 14.3972 3.86468 14.0937 3.86468ZM12.1301 7.88444C11.9968 7.88444 11.869 7.93738 11.7748 8.03161C11.6805 8.12584 11.6276 8.25365 11.6276 8.38691V9.39185C11.6276 9.52511 11.6805 9.65292 11.7748 9.74715C11.869 9.84138 11.9968 9.89432 12.1301 9.89432H13.135C13.2683 9.89432 13.3961 9.84138 13.4903 9.74715C13.5845 9.65292 13.6375 9.52511 13.6375 9.39185V8.38691C13.6375 8.25365 13.5845 8.12584 13.4903 8.03161C13.3961 7.93738 13.2683 7.88444 13.135 7.88444H12.1301Z" fill="currentColor" fill-opacity="currentOpacity"/>
</g>
<defs>
<clipPath id="clip0">
<rect width="16.0791" height="16.0791" fill="white" transform="translate(0.573242 0.849854)"/>
</clipPath>
</defs>
</svg>
