<svg width="23" height="23" viewBox="0 0 23 23" fill="none" xmlns="http://www.w3.org/2000/svg">
<rect x="0.77002" y="0.25" width="21.8153" height="21.8153" rx="10.9076" fill="#5F2EEA"/>
<path d="M6.8141 17.3037C6.63411 17.3034 6.46253 17.2275 6.34122 17.0946C6.21767 16.9627 6.15628 16.7843 6.17247 16.6043L6.32967 14.8758L13.5916 7.61647L15.861 9.88525L8.60102 17.144L6.87249 17.3012C6.8526 17.3031 6.83271 17.3037 6.8141 17.3037ZM16.314 9.43162L14.0452 7.16284L15.4061 5.80195C15.5264 5.68147 15.6898 5.61377 15.86 5.61377C16.0303 5.61377 16.1937 5.68147 16.314 5.80195L17.6749 7.16284C17.7954 7.28318 17.8631 7.44649 17.8631 7.61679C17.8631 7.78708 17.7954 7.95039 17.6749 8.07074L16.3146 9.43098L16.314 9.43162Z" fill="#FCFCFC"/>
</svg>
