<svg width="15" height="15" viewBox="0 0 15 15" fill="none" xmlns="http://www.w3.org/2000/svg">
<g clip-path="url(#clip0)">
<path fill-rule="evenodd" clip-rule="evenodd" d="M0.476318 7.1279C0.476318 10.5513 2.96268 13.398 6.21452 13.9753V9.002H4.49306V7.08946H6.21452V5.55908C6.21452 3.83762 7.32372 2.88163 8.89254 2.88163C9.38947 2.88163 9.92542 2.95795 10.4223 3.03427V4.79418H9.54268C8.70088 4.79418 8.5098 5.21479 8.5098 5.75073V7.08946H10.346L10.0402 9.002H8.5098V13.9753C11.7616 13.398 14.248 10.5519 14.248 7.1279C14.248 3.31946 11.1494 0.203613 7.36216 0.203613C3.57495 0.203613 0.476318 3.31946 0.476318 7.1279Z" fill="#FCFCFC"/>
</g>
<defs>
<clipPath id="clip0">
<rect width="13.7717" height="13.7717" fill="white" transform="translate(0.476318 0.203613)"/>
</clipPath>
</defs>
</svg>
