<svg width="15" height="15" viewBox="0 0 15 15" fill="none" xmlns="http://www.w3.org/2000/svg">
<path fill-rule="evenodd" clip-rule="evenodd" d="M3.76004 0.151275C4.43313 0.120289 4.64774 0.113403 6.36231 0.113403C8.07689 0.113403 8.2915 0.120863 8.96401 0.151275C9.63653 0.181688 10.0956 0.288992 10.4973 0.444498C10.9179 0.603446 11.2995 0.85191 11.6151 1.17325C11.9364 1.48828 12.1843 1.86929 12.3427 2.29048C12.4987 2.69215 12.6055 3.15121 12.6365 3.82258C12.6674 4.49682 12.6743 4.71142 12.6743 6.42542C12.6743 8.14 12.6669 8.35461 12.6365 9.0277C12.6061 9.69907 12.4987 10.1581 12.3427 10.5598C12.1843 10.981 11.936 11.3627 11.6151 11.6782C11.2995 11.9995 10.9179 12.2474 10.4973 12.4058C10.0956 12.5619 9.63653 12.6686 8.96516 12.6996C8.2915 12.7306 8.07689 12.7374 6.36231 12.7374C4.64774 12.7374 4.43313 12.73 3.76004 12.6996C3.08867 12.6692 2.62961 12.5619 2.22794 12.4058C1.80671 12.2474 1.42506 11.9991 1.10956 11.6782C0.788444 11.363 0.539942 10.9815 0.381387 10.5604C0.225882 10.1587 0.119151 9.69964 0.0881651 9.02827C0.0571788 8.35403 0.050293 8.13943 0.050293 6.42542C0.050293 4.71085 0.0577526 4.49624 0.0881651 3.82372C0.118578 3.15121 0.225882 2.69215 0.381387 2.29048C0.540176 1.86934 0.788868 1.48788 1.11014 1.17268C1.42519 0.851624 1.80645 0.603126 2.22737 0.444498C2.62904 0.288992 3.0881 0.182262 3.75947 0.151275H3.76004ZM8.91294 1.28744C8.24731 1.25703 8.04762 1.25071 6.36231 1.25071C4.677 1.25071 4.47732 1.25703 3.81168 1.28744C3.19597 1.31556 2.86201 1.41827 2.63937 1.50492C2.345 1.61968 2.13441 1.75568 1.91349 1.9766C1.70407 2.18033 1.5429 2.42836 1.44181 2.70248C1.35516 2.92512 1.25245 3.25909 1.22433 3.87479C1.19392 4.54043 1.1876 4.74011 1.1876 6.42542C1.1876 8.11073 1.19392 8.31042 1.22433 8.97605C1.25245 9.59176 1.35516 9.92573 1.44181 10.1484C1.5428 10.4221 1.70404 10.6705 1.91349 10.8743C2.11719 11.0837 2.36566 11.2449 2.63937 11.3459C2.86201 11.4326 3.19597 11.5353 3.81168 11.5634C4.47732 11.5938 4.67643 11.6001 6.36231 11.6001C8.0482 11.6001 8.24731 11.5938 8.91294 11.5634C9.52865 11.5353 9.86262 11.4326 10.0853 11.3459C10.3796 11.2312 10.5902 11.0952 10.8111 10.8743C11.0206 10.6705 11.1818 10.4221 11.2828 10.1484C11.3695 9.92573 11.4722 9.59176 11.5003 8.97605C11.5307 8.31042 11.537 8.11073 11.537 6.42542C11.537 4.74011 11.5307 4.54043 11.5003 3.87479C11.4722 3.25909 11.3695 2.92512 11.2828 2.70248C11.1681 2.40811 11.0321 2.19752 10.8111 1.9766C10.6074 1.76719 10.3594 1.60603 10.0853 1.50492C9.86262 1.41827 9.52865 1.31556 8.91294 1.28744V1.28744ZM5.5561 8.37125C6.00635 8.55868 6.50771 8.58397 6.97454 8.44282C7.44137 8.30166 7.84472 8.00281 8.11568 7.5973C8.38665 7.1918 8.50843 6.7048 8.46023 6.21948C8.41202 5.73417 8.19682 5.28064 7.85138 4.93636C7.63117 4.71629 7.3649 4.54778 7.07175 4.44296C6.77859 4.33814 6.46585 4.29963 6.15602 4.33019C5.8462 4.36075 5.547 4.45962 5.27998 4.61969C5.01295 4.77976 4.78474 4.99704 4.61176 5.25589C4.43879 5.51475 4.32536 5.80873 4.27964 6.11669C4.23393 6.42464 4.25706 6.7389 4.34737 7.03684C4.43768 7.33478 4.59293 7.60899 4.80194 7.83973C5.01094 8.07047 5.26851 8.252 5.5561 8.37125ZM4.06818 4.13129C4.36945 3.83002 4.72711 3.59104 5.12074 3.428C5.51437 3.26495 5.93625 3.18103 6.36231 3.18103C6.78837 3.18103 7.21026 3.26495 7.60389 3.428C7.99752 3.59104 8.35518 3.83002 8.65645 4.13129C8.95772 4.43256 9.1967 4.79022 9.35974 5.18385C9.52279 5.57748 9.60671 5.99936 9.60671 6.42542C9.60671 6.85148 9.52279 7.27337 9.35974 7.667C9.1967 8.06063 8.95772 8.41829 8.65645 8.71956C8.04801 9.328 7.22278 9.66982 6.36231 9.66982C5.50185 9.66982 4.67662 9.328 4.06818 8.71956C3.45974 8.11112 3.11792 7.28589 3.11792 6.42542C3.11792 5.56496 3.45974 4.73973 4.06818 4.13129V4.13129ZM10.3263 3.6642C10.4009 3.59378 10.4607 3.50909 10.502 3.41515C10.5434 3.32121 10.5654 3.21993 10.5669 3.11731C10.5684 3.01469 10.5493 2.91281 10.5107 2.81771C10.4722 2.7226 10.4149 2.63621 10.3423 2.56364C10.2697 2.49107 10.1833 2.43379 10.0882 2.39521C9.99313 2.35663 9.89126 2.33752 9.78863 2.33901C9.68601 2.34051 9.58473 2.36258 9.4908 2.40392C9.39686 2.44526 9.31217 2.50503 9.24174 2.57968C9.10478 2.72488 9.02979 2.91773 9.0327 3.11731C9.03561 3.31689 9.11619 3.50748 9.25733 3.64862C9.39847 3.78976 9.58905 3.87033 9.78863 3.87324C9.98821 3.87615 10.1811 3.80117 10.3263 3.6642V3.6642Z" fill="#FCFCFC"/>
</svg>
