<svg width="15" height="15" viewBox="0 0 15 15" fill="none" xmlns="http://www.w3.org/2000/svg">
<g clip-path="url(#clip0)">
<path d="M4.22005 14.9304V5.50276H1.08649V14.9304H4.22005ZM2.65367 4.2148C3.7464 4.2148 4.42657 3.49087 4.42657 2.58619C4.40621 1.66112 3.74644 0.957275 2.67441 0.957275C1.60255 0.957275 0.901611 1.66113 0.901611 2.58619C0.901611 3.49091 1.58161 4.2148 2.63322 4.2148H2.65358H2.65367ZM5.95446 14.9304H9.08802V9.66555C9.08802 9.38379 9.10838 9.10231 9.19113 8.90089C9.41766 8.33793 9.93326 7.75485 10.7989 7.75485C11.9328 7.75485 12.3864 8.6194 12.3864 9.88676V14.9304H15.5198V9.52462C15.5198 6.62882 13.9738 5.28143 11.9121 5.28143C10.2217 5.28143 9.47951 6.22632 9.06717 6.86988H9.08809V5.50257H5.95453C5.99566 6.38721 5.95453 14.9302 5.95453 14.9302L5.95446 14.9304Z" fill="#FCFCFC"/>
</g>
<defs>
<clipPath id="clip0">
<rect width="14.6181" height="13.9731" fill="white" transform="translate(0.902588 0.957764)"/>
</clipPath>
</defs>
</svg>
