<svg width="15" height="15" viewBox="0 0 15 15" fill="none" xmlns="http://www.w3.org/2000/svg">
<path d="M13.077 4.05813C13.0825 4.04918 13.0844 4.03848 13.0824 4.02818C13.0804 4.01787 13.0745 4.00869 13.0661 4.00247C13.0638 4.00018 13.0615 3.99788 13.0592 3.99673L13.0557 3.99558L9.59388 2.2638C9.5413 2.23952 9.48424 2.22643 9.42633 2.22535C9.3595 2.22492 9.29365 2.24137 9.23487 2.27317C9.17609 2.30497 9.12628 2.35108 9.09007 2.40725L7.09662 5.64704L9.5979 9.71141L13.077 4.05813ZM12.4664 11.8294C12.817 12.005 13.1016 11.8822 13.1016 11.5551V5.06404L9.76833 10.4803L12.4664 11.8294ZM5.9989 4.90911V8.59648L9.27599 10.2347L5.9989 4.90911ZM1.94314 10.3937L4.92127 11.8827C4.9875 11.9178 5.06096 11.9371 5.13588 11.939C5.32122 11.939 5.4509 11.7955 5.4509 11.5551V4.04149C5.45092 4.03456 5.44906 4.02776 5.44552 4.0218C5.44199 4.01584 5.43691 4.01094 5.43082 4.00764L2.0493 2.31773C1.99626 2.28934 1.93729 2.27382 1.87715 2.2724C1.72911 2.2724 1.62524 2.38659 1.62524 2.57882V9.87954C1.62524 10.0752 1.7687 10.3065 1.94314 10.3937Z" fill="#FCFCFC"/>
</svg>
