<svg width="23" height="23" viewBox="0 0 23 23" fill="none" xmlns="http://www.w3.org/2000/svg">
<path d="M10.7594 18.6563H7.50789C7.08815 18.6563 6.72498 18.3642 6.63515 17.9541L6.27159 16.2712C5.78658 16.0587 5.3267 15.793 4.9004 15.4789L3.25944 16.0014C2.85925 16.129 2.42421 15.9606 2.21431 15.5968L0.584962 12.782C0.377352 12.4181 0.448878 11.9589 0.757365 11.6753L2.03029 10.514C1.9724 9.98797 1.9724 9.45716 2.03029 8.93112L0.757365 7.77253C0.448424 7.4888 0.37687 7.02907 0.584962 6.66486L2.21073 3.84835C2.42064 3.48451 2.85568 3.31608 3.25587 3.44369L4.89683 3.96626C5.11484 3.80472 5.3418 3.6556 5.57661 3.51962C5.80202 3.3925 6.03401 3.27741 6.27159 3.17482L6.63604 1.49366C6.72543 1.08362 7.08821 0.791091 7.50789 0.790649H10.7594C11.1791 0.791091 11.5419 1.08362 11.6313 1.49366L11.9993 3.17571C12.2501 3.28604 12.4944 3.41071 12.7309 3.5491C12.9518 3.67664 13.1653 3.81651 13.3705 3.96805L15.0123 3.44548C15.4123 3.31834 15.8468 3.48671 16.0566 3.85014L17.6824 6.66665C17.89 7.03065 17.8184 7.48982 17.51 7.77342L16.237 8.93469C16.2949 9.46073 16.2949 9.99154 16.237 10.5176L17.51 11.6788C17.8184 11.9625 17.89 12.4216 17.6824 12.7856L16.0566 15.6021C15.8468 15.9656 15.4123 16.1339 15.0123 16.0068L13.3705 15.4842C13.1627 15.6372 12.9468 15.7789 12.7238 15.9085C12.4896 16.0442 12.248 16.1668 12.0002 16.2757L11.6313 17.9541C11.5415 18.3638 11.1788 18.6559 10.7594 18.6563ZM9.13008 6.15033C7.1567 6.15033 5.55696 7.75007 5.55696 9.72346C5.55696 11.6968 7.1567 13.2966 9.13008 13.2966C11.1035 13.2966 12.7032 11.6968 12.7032 9.72346C12.7032 7.75007 11.1035 6.15033 9.13008 6.15033Z" fill="currentColor" fill-opacity="currentOpacity"/>
</svg>
