<svg width="15" height="15" viewBox="0 0 15 15" fill="none" xmlns="http://www.w3.org/2000/svg">
<g clip-path="url(#clip0)">
<path d="M14.0431 3.7006C13.5639 3.91292 13.0492 4.05637 12.5081 4.12121C13.0664 3.78713 13.4841 3.26133 13.6833 2.64191C13.1587 2.95348 12.5846 3.1728 11.9859 3.29032C11.5833 2.86045 11.0501 2.57553 10.4689 2.47979C9.88781 2.38404 9.29133 2.48284 8.7721 2.76083C8.25287 3.03883 7.83995 3.48046 7.59744 4.01718C7.35493 4.5539 7.29641 5.15567 7.43095 5.72906C6.36805 5.67569 5.32826 5.39943 4.37904 4.9182C3.42983 4.43696 2.5924 3.76152 1.92113 2.9357C1.6916 3.33164 1.55962 3.79069 1.55962 4.27959C1.55936 4.71971 1.66775 5.15308 1.87515 5.54127C2.08256 5.92945 2.38257 6.26044 2.74857 6.50486C2.32411 6.49136 1.909 6.37666 1.53781 6.17033V6.20475C1.53777 6.82204 1.75129 7.42032 2.14215 7.8981C2.53301 8.37587 3.07713 8.7037 3.68218 8.82597C3.28842 8.93253 2.87558 8.94823 2.47486 8.87187C2.64557 9.40301 2.9781 9.86747 3.42589 10.2002C3.87369 10.533 4.41433 10.7174 4.97213 10.7276C4.02523 11.4709 2.85581 11.8742 1.652 11.8724C1.43876 11.8724 1.2257 11.86 1.01392 11.8351C2.23585 12.6207 3.65827 13.0377 5.11099 13.0361C10.0286 13.0361 12.717 8.96311 12.717 5.43067C12.717 5.31591 12.7141 5.2 12.7089 5.08523C13.2319 4.70707 13.6832 4.23879 14.0419 3.70233L14.0431 3.7006V3.7006Z" fill="#FCFCFC"/>
</g>
<defs>
<clipPath id="clip0">
<rect width="13.7717" height="13.7717" fill="white" transform="translate(0.476318 0.867676)"/>
</clipPath>
</defs>
</svg>
