<svg width="33" height="32" viewBox="0 0 33 32" fill="none" xmlns="http://www.w3.org/2000/svg">
<path d="M25.4307 29.3334H6.76408C5.29132 29.3334 4.09741 28.1395 4.09741 26.6667V8.00008C4.09741 6.52732 5.29132 5.33341 6.76408 5.33341H9.43075V2.66675H12.0974V5.33341H20.0974V2.66675H22.7641V5.33341H25.4307C26.9035 5.33341 28.0974 6.52732 28.0974 8.00008V26.6667C28.0974 28.1395 26.9035 29.3334 25.4307 29.3334ZM6.76408 13.3334V26.6667H25.4307V13.3334H6.76408ZM6.76408 8.00008V10.6667H25.4307V8.00008H6.76408ZM22.7641 24.0001H20.0974V21.3334H22.7641V24.0001ZM17.4307 24.0001H14.7641V21.3334H17.4307V24.0001ZM12.0974 24.0001H9.43075V21.3334H12.0974V24.0001ZM22.7641 18.6667H20.0974V16.0001H22.7641V18.6667ZM17.4307 18.6667H14.7641V16.0001H17.4307V18.6667ZM12.0974 18.6667H9.43075V16.0001H12.0974V18.6667Z" fill="white"/>
</svg>
