<svg width="33" height="32" viewBox="0 0 33 32" fill="none" xmlns="http://www.w3.org/2000/svg">
<path d="M16.0974 29.3334C8.7336 29.3334 2.76407 23.3639 2.76407 16.0001C2.76407 8.63628 8.7336 2.66675 16.0974 2.66675C23.4612 2.66675 29.4307 8.63628 29.4307 16.0001C29.4227 23.3605 23.4578 29.3253 16.0974 29.3334ZM16.0974 5.33341C10.2064 5.33341 5.43074 10.109 5.43074 16.0001C5.43074 21.8911 10.2064 26.6667 16.0974 26.6667C21.9884 26.6667 26.7641 21.8911 26.7641 16.0001C26.7575 10.1118 21.9857 5.34003 16.0974 5.33341ZM22.7641 17.3334H14.7641V9.33341H17.4307V14.6667H22.7641V17.3334Z" fill="white"/>
</svg>
