<svg width="24" height="24" viewBox="0 0 24 24" fill="none" xmlns="http://www.w3.org/2000/svg">
<path d="M6.85721 2.5715C6.85721 3.18178 6.73036 3.76121 6.50064 4.28578H12.0001C12.2274 4.28578 12.4454 4.37609 12.6062 4.53684C12.7669 4.69758 12.8572 4.9156 12.8572 5.14293V8.5715H12.0001C11.0908 8.5715 10.2187 8.93272 9.5757 9.5757C8.93272 10.2187 8.5715 11.0908 8.5715 12.0001V12.8572H5.14293C4.9156 12.8572 4.69758 12.7669 4.53684 12.6062C4.37609 12.4454 4.28578 12.2274 4.28578 12.0001V6.50064C3.4772 6.85438 2.5789 6.949 1.71436 6.7715V12.0001C1.71436 12.9094 2.07558 13.7815 2.71856 14.4244C3.36154 15.0674 4.23361 15.4286 5.14293 15.4286H8.5715V18.8572C8.5715 19.7665 8.93272 20.6386 9.5757 21.2816C10.2187 21.9246 11.0908 22.2858 12.0001 22.2858H17.2286C17.0534 21.4211 17.1479 20.5235 17.4995 19.7144H12.0001C11.7727 19.7144 11.5547 19.6241 11.394 19.4633C11.2332 19.3026 11.1429 19.0845 11.1429 18.8572V15.4286H12.0001C12.9094 15.4286 13.7815 15.0674 14.4244 14.4244C15.0674 13.7815 15.4286 12.9094 15.4286 12.0001V11.1429H18.8572C19.0845 11.1429 19.3026 11.2332 19.4633 11.394C19.6241 11.5547 19.7144 11.7727 19.7144 12.0001V17.4995C20.5229 17.1456 21.4212 17.051 22.2858 17.2286V12.0001C22.2858 11.0908 21.9246 10.2187 21.2816 9.5757C20.6386 8.93272 19.7665 8.5715 18.8572 8.5715H15.4286V5.14293C15.4286 4.23361 15.0674 3.36154 14.4244 2.71856C13.7815 2.07558 12.9094 1.71436 12.0001 1.71436H6.7715C6.82807 1.99207 6.85721 2.27836 6.85721 2.5715ZM12.8572 11.1429V12.0001C12.8572 12.2274 12.7669 12.4454 12.6062 12.6062C12.4454 12.7669 12.2274 12.8572 12.0001 12.8572H11.1429V12.0001C11.1429 11.7727 11.2332 11.5547 11.394 11.394C11.5547 11.2332 11.7727 11.1429 12.0001 11.1429H12.8572Z" fill="#A0A3BD"/>
<path d="M5.14286 2.57143C5.14286 3.25341 4.87194 3.90747 4.3897 4.3897C3.90747 4.87194 3.25341 5.14286 2.57143 5.14286C1.88944 5.14286 1.23539 4.87194 0.753154 4.3897C0.270918 3.90747 0 3.25341 0 2.57143C0 1.88944 0.270918 1.23539 0.753154 0.753154C1.23539 0.270918 1.88944 0 2.57143 0C3.25341 0 3.90747 0.270918 4.3897 0.753154C4.87194 1.23539 5.14286 1.88944 5.14286 2.57143Z" fill="#A0A3BD"/>
<path d="M23.9999 21.4285C23.9999 22.1105 23.729 22.7645 23.2468 23.2468C22.7645 23.729 22.1105 23.9999 21.4285 23.9999C20.7465 23.9999 20.0924 23.729 19.6102 23.2468C19.128 22.7645 18.8571 22.1105 18.8571 21.4285C18.8571 20.7465 19.128 20.0924 19.6102 19.6102C20.0924 19.128 20.7465 18.8571 21.4285 18.8571C22.1105 18.8571 22.7645 19.128 23.2468 19.6102C23.729 20.0924 23.9999 20.7465 23.9999 21.4285Z" fill="#A0A3BD"/>
<path d="M23.9999 2.57143C23.9999 3.25341 23.729 3.90747 23.2468 4.3897C22.7645 4.87194 22.1105 5.14286 21.4285 5.14286C20.7465 5.14286 20.0924 4.87194 19.6102 4.3897C19.128 3.90747 18.8571 3.25341 18.8571 2.57143C18.8571 1.88944 19.128 1.23539 19.6102 0.753154C20.0924 0.270918 20.7465 0 21.4285 0C22.1105 0 22.7645 0.270918 23.2468 0.753154C23.729 1.23539 23.9999 1.88944 23.9999 2.57143Z" fill="#A0A3BD"/>
<path d="M5.14286 21.4285C5.14286 22.1105 4.87194 22.7645 4.3897 23.2468C3.90747 23.729 3.25341 23.9999 2.57143 23.9999C1.88944 23.9999 1.23539 23.729 0.753154 23.2468C0.270918 22.7645 0 22.1105 0 21.4285C0 20.7465 0.270918 20.0924 0.753154 19.6102C1.23539 19.128 1.88944 18.8571 2.57143 18.8571C3.25341 18.8571 3.90747 19.128 4.3897 19.6102C4.87194 20.0924 5.14286 20.7465 5.14286 21.4285Z" fill="#A0A3BD"/>
</svg>
