<svg width="34" height="34" viewBox="0 0 34 34" fill="none" xmlns="http://www.w3.org/2000/svg">
<rect width="34" height="34" rx="17" fill="#5F2EEA"/>
<path d="M9.41999 26.5789C9.13948 26.5784 8.87206 26.4601 8.68299 26.2529C8.49044 26.0474 8.39476 25.7694 8.41999 25.4889L8.66499 22.7949L19.983 11.4809L23.52 15.0169L12.205 26.3299L9.51099 26.5749C9.47999 26.5779 9.44899 26.5789 9.41999 26.5789ZM24.226 14.3099L20.69 10.7739L22.811 8.65291C22.9986 8.46513 23.2531 8.35962 23.5185 8.35962C23.7839 8.35962 24.0384 8.46513 24.226 8.65291L26.347 10.7739C26.5348 10.9615 26.6403 11.216 26.6403 11.4814C26.6403 11.7468 26.5348 12.0013 26.347 12.1889L24.227 14.3089L24.226 14.3099Z" fill="#FCFCFC"/>
</svg>
