<svg width="41" height="41" viewBox="0 0 41 41" fill="none" xmlns="http://www.w3.org/2000/svg">
<circle cx="20.7044" cy="20.4662" r="20.2348" fill="#121212"/>
<g clip-path="url(#clip0)">
<path fill-rule="evenodd" clip-rule="evenodd" d="M13.317 20.8304C13.317 24.6628 16.1004 27.8496 19.7408 28.4958V22.9284H17.8136V20.7873H19.7408V19.0741C19.7408 17.147 20.9825 16.0768 22.7387 16.0768C23.295 16.0768 23.895 16.1623 24.4513 16.2477V18.2178H23.4665C22.5242 18.2178 22.3103 18.6887 22.3103 19.2887V20.7873H24.3658L24.0235 22.9284H22.3103V28.4958C25.9506 27.8496 28.734 24.6634 28.734 20.8304C28.734 16.5669 25.2652 13.0789 21.0255 13.0789C16.7858 13.0789 13.317 16.5669 13.317 20.8304Z" fill="#FCFCFC"/>
</g>
<defs>
<clipPath id="clip0">
<rect width="15.417" height="15.417" fill="white" transform="translate(13.317 13.0789)"/>
</clipPath>
</defs>
</svg>
