<svg width="41" height="41" viewBox="0 0 41 41" fill="none" xmlns="http://www.w3.org/2000/svg">
<circle cx="20.2348" cy="20.4662" r="20.2348" fill="#121212"/>
<g clip-path="url(#clip0)">
<path fill-rule="evenodd" clip-rule="evenodd" d="M17.6429 13.7636C18.3964 13.7289 18.6367 13.7212 20.5561 13.7212C22.4755 13.7212 22.7158 13.7295 23.4686 13.7636C24.2215 13.7976 24.7354 13.9178 25.185 14.0918C25.6559 14.2698 26.0831 14.5479 26.4364 14.9077C26.7961 15.2603 27.0736 15.6869 27.2509 16.1584C27.4256 16.608 27.5451 17.1219 27.5798 17.8735C27.6145 18.6283 27.6222 18.8685 27.6222 20.7873C27.6222 22.7067 27.6139 22.947 27.5798 23.7005C27.5458 24.452 27.4256 24.9659 27.2509 25.4156C27.0736 25.8872 26.7957 26.3144 26.4364 26.6676C26.0831 27.0273 25.6559 27.3048 25.185 27.4821C24.7354 27.6569 24.2215 27.7763 23.4699 27.811C22.7158 27.8457 22.4755 27.8534 20.5561 27.8534C18.6367 27.8534 18.3964 27.8451 17.6429 27.811C16.8914 27.777 16.3775 27.6569 15.9278 27.4821C15.4562 27.3048 15.029 27.0268 14.6758 26.6676C14.3163 26.3147 14.0381 25.8877 13.8606 25.4162C13.6866 24.9666 13.5671 24.4527 13.5324 23.7011C13.4977 22.9463 13.49 22.7061 13.49 20.7873C13.49 18.8679 13.4983 18.6276 13.5324 17.8748C13.5664 17.1219 13.6866 16.608 13.8606 16.1584C14.0384 15.6869 14.3168 15.2599 14.6765 14.907C15.0291 14.5476 15.456 14.2694 15.9272 14.0918C16.3768 13.9178 16.8907 13.7983 17.6423 13.7636H17.6429ZM23.4115 15.0355C22.6663 15.0014 22.4428 14.9944 20.5561 14.9944C18.6695 14.9944 18.4459 15.0014 17.7008 15.0355C17.0115 15.067 16.6376 15.1819 16.3884 15.2789C16.0588 15.4074 15.8231 15.5597 15.5758 15.807C15.3413 16.0351 15.1609 16.3127 15.0477 16.6196C14.9507 16.8688 14.8358 17.2427 14.8043 17.932C14.7702 18.6771 14.7632 18.9007 14.7632 20.7873C14.7632 22.674 14.7702 22.8975 14.8043 23.6427C14.8358 24.3319 14.9507 24.7058 15.0477 24.955C15.1608 25.2614 15.3413 25.5396 15.5758 25.7676C15.8038 26.0021 16.082 26.1826 16.3884 26.2957C16.6376 26.3927 17.0115 26.5076 17.7008 26.5391C18.4459 26.5732 18.6688 26.5802 20.5561 26.5802C22.4434 26.5802 22.6663 26.5732 23.4115 26.5391C24.1007 26.5076 24.4746 26.3927 24.7238 26.2957C25.0534 26.1672 25.2891 26.0149 25.5364 25.7676C25.7709 25.5396 25.9514 25.2614 26.0645 24.955C26.1615 24.7058 26.2764 24.3319 26.3079 23.6427C26.342 22.8975 26.349 22.674 26.349 20.7873C26.349 18.9007 26.342 18.6771 26.3079 17.932C26.2764 17.2427 26.1615 16.8688 26.0645 16.6196C25.936 16.29 25.7837 16.0543 25.5364 15.807C25.3083 15.5726 25.0307 15.3921 24.7238 15.2789C24.4746 15.1819 24.1007 15.067 23.4115 15.0355ZM19.6536 22.9656C20.1576 23.1754 20.7189 23.2037 21.2415 23.0457C21.7641 22.8877 22.2156 22.5531 22.5189 22.0992C22.8223 21.6452 22.9586 21.1001 22.9047 20.5568C22.8507 20.0135 22.6098 19.5058 22.2231 19.1203C21.9765 18.874 21.6785 18.6853 21.3503 18.568C21.0221 18.4507 20.672 18.4075 20.3252 18.4418C19.9783 18.476 19.6434 18.5866 19.3445 18.7658C19.0455 18.945 18.7901 19.1883 18.5964 19.4781C18.4028 19.7678 18.2758 20.0969 18.2246 20.4417C18.1734 20.7864 18.1993 21.1382 18.3004 21.4718C18.4015 21.8053 18.5753 22.1123 18.8093 22.3706C19.0433 22.6289 19.3316 22.8321 19.6536 22.9656ZM17.9879 18.2191C18.3252 17.8818 18.7255 17.6143 19.1662 17.4318C19.6069 17.2492 20.0791 17.1553 20.5561 17.1553C21.0331 17.1553 21.5054 17.2492 21.946 17.4318C22.3867 17.6143 22.7871 17.8818 23.1243 18.2191C23.4616 18.5564 23.7291 18.9567 23.9116 19.3974C24.0942 19.8381 24.1881 20.3103 24.1881 20.7873C24.1881 21.2643 24.0942 21.7366 23.9116 22.1772C23.7291 22.6179 23.4616 23.0183 23.1243 23.3555C22.4432 24.0366 21.5194 24.4193 20.5561 24.4193C19.5928 24.4193 18.669 24.0366 17.9879 23.3555C17.3068 22.6744 16.9241 21.7506 16.9241 20.7873C16.9241 19.824 17.3068 18.9002 17.9879 18.2191ZM24.9936 17.6962C25.0772 17.6174 25.1441 17.5226 25.1904 17.4174C25.2367 17.3122 25.2614 17.1989 25.263 17.084C25.2647 16.9691 25.2433 16.855 25.2001 16.7486C25.1569 16.6421 25.0928 16.5454 25.0116 16.4642C24.9303 16.3829 24.8336 16.3188 24.7272 16.2756C24.6207 16.2324 24.5066 16.211 24.3918 16.2127C24.2769 16.2144 24.1635 16.2391 24.0583 16.2854C23.9532 16.3316 23.8584 16.3985 23.7795 16.4821C23.6262 16.6447 23.5423 16.8606 23.5455 17.084C23.5488 17.3074 23.639 17.5208 23.797 17.6788C23.955 17.8368 24.1683 17.927 24.3918 17.9302C24.6152 17.9335 24.8311 17.8495 24.9936 17.6962Z" fill="#FCFCFC"/>
</g>
<defs>
<clipPath id="clip0">
<rect width="15.417" height="15.417" fill="white" transform="translate(12.8477 13.0789)"/>
</clipPath>
</defs>
</svg>
