<svg width="28" height="28" viewBox="0 0 28 28" fill="none" xmlns="http://www.w3.org/2000/svg">
<path d="M14 27.3334C6.63622 27.3334 0.666687 21.3639 0.666687 14.0001C0.666687 6.63628 6.63622 0.666748 14 0.666748C21.3638 0.666748 27.3334 6.63628 27.3334 14.0001C27.3253 21.3605 21.3605 27.3253 14 27.3334ZM3.33335 14.2294C3.39644 20.0977 8.18816 24.8128 14.0567 24.7814C19.9253 24.7497 24.6661 19.9834 24.6661 14.1147C24.6661 8.24609 19.9253 3.47978 14.0567 3.44808C8.18816 3.41669 3.39644 8.13176 3.33335 14.0001V14.2294ZM16.6667 20.6667H12.6667V15.3334H11.3334V12.6667H15.3334V18.0001H16.6667V20.6667ZM15.3334 10.0001H12.6667V7.33341H15.3334V10.0001Z" fill="white"/>
</svg>
