<svg width="41" height="41" viewBox="0 0 41 41" fill="none" xmlns="http://www.w3.org/2000/svg">
<circle cx="20.6435" cy="20.4662" r="20.2348" fill="#121212"/>
<g clip-path="url(#clip0)">
<path d="M16.3277 28.0785V17.5246H12.8198V28.0785H16.3277ZM14.5742 16.0827C15.7974 16.0827 16.5589 15.2723 16.5589 14.2596C16.5361 13.224 15.7975 12.436 14.5974 12.436C13.3975 12.436 12.6128 13.224 12.6128 14.2596C12.6128 15.2724 13.374 16.0827 14.5513 16.0827H14.5741H14.5742ZM18.2693 28.0785H21.7772V22.1847C21.7772 21.8693 21.8 21.5542 21.8927 21.3287C22.1462 20.6984 22.7234 20.0457 23.6925 20.0457C24.9618 20.0457 25.4697 21.0135 25.4697 22.4323V28.0785H28.9774V22.0269C28.9774 18.7851 27.2467 17.2768 24.9387 17.2768C23.0464 17.2768 22.2155 18.3346 21.7539 19.055H21.7773V17.5243H18.2694C18.3154 18.5147 18.2694 28.0783 18.2694 28.0783L18.2693 28.0785Z" fill="#FCFCFC"/>
</g>
<defs>
<clipPath id="clip0">
<rect width="16.3645" height="15.6425" fill="white" transform="translate(12.6138 12.4365)"/>
</clipPath>
</defs>
</svg>
