<svg width="42" height="41" viewBox="0 0 42 41" fill="none" xmlns="http://www.w3.org/2000/svg">
<circle cx="21.113" cy="20.4662" r="20.2348" fill="#121212"/>
<path d="M27.8315 17.4028C27.8376 17.3928 27.8398 17.3808 27.8375 17.3693C27.8352 17.3577 27.8287 17.3475 27.8192 17.3405C27.8167 17.3379 27.8141 17.3354 27.8115 17.3341L27.8077 17.3328L23.9322 15.3941C23.8734 15.3669 23.8095 15.3523 23.7447 15.3511C23.6699 15.3506 23.5961 15.369 23.5303 15.4046C23.4645 15.4402 23.4088 15.4918 23.3682 15.5547L21.1366 19.1816L23.9367 23.7315L27.8315 17.4028ZM27.148 26.1025C27.5405 26.2991 27.8591 26.1616 27.8591 25.7954V18.5289L24.1275 24.5923L27.148 26.1025ZM19.9078 18.3555V22.4834L23.5764 24.3173L19.9078 18.3555ZM15.3675 24.4953L18.7014 26.1622C18.7755 26.2015 18.8578 26.2231 18.9416 26.2252C19.1491 26.2252 19.2943 26.0646 19.2943 25.7954V17.3842C19.2943 17.3764 19.2922 17.3688 19.2883 17.3622C19.2843 17.3555 19.2786 17.35 19.2718 17.3463L15.4863 15.4545C15.4269 15.4227 15.3609 15.4053 15.2936 15.4038C15.1279 15.4038 15.0116 15.5316 15.0116 15.7468V23.9197C15.0116 24.1388 15.1722 24.3976 15.3675 24.4953Z" fill="#FCFCFC"/>
</svg>
