<svg width="33" height="32" viewBox="0 0 33 32" fill="none" xmlns="http://www.w3.org/2000/svg">
<path d="M24.4224 6.96839C24.7952 6.96839 25.0974 6.66509 25.0974 6.29101V4.03309C25.0974 3.65901 24.7952 3.35571 24.4224 3.35571H7.77241C7.39964 3.35571 7.09741 3.65901 7.09741 4.03309V6.55903C7.09741 6.93311 7.39964 7.2364 7.77241 7.2364H12.5694C14.1055 7.2364 15.2841 7.79851 15.999 8.77472H7.77241C7.39964 8.77472 7.09741 9.07802 7.09741 9.4521V11.71C7.09741 12.0841 7.39964 12.3874 7.77241 12.3874H16.7025C16.3528 14.4244 14.8484 15.6971 12.4974 15.6971H7.77241C7.39964 15.6971 7.09741 16.0004 7.09741 16.3744V19.3669C7.09741 19.5559 7.17616 19.7364 7.31459 19.8646L16.5988 28.4648C16.7235 28.5803 16.8869 28.6444 17.0566 28.6444H21.7007C22.3152 28.6444 22.61 27.8876 22.1585 27.4693L13.6714 19.6074C17.9745 19.4754 21.0483 16.5934 21.4518 12.3874H24.4224C24.7952 12.3874 25.0974 12.0841 25.0974 11.71V9.4521C25.0974 9.07802 24.7952 8.77472 24.4224 8.77472H21.1211C20.925 8.12326 20.6553 7.51898 20.3194 6.96839H24.4224Z" fill="white"/>
</svg>
