<svg width="42" height="41" viewBox="0 0 42 41" fill="none" xmlns="http://www.w3.org/2000/svg">
<circle cx="21.1739" cy="20.4662" r="20.2348" fill="#121212"/>
<path d="M28.974 16.2502C28.4377 16.4879 27.8615 16.6485 27.2557 16.7211C27.8807 16.3471 28.3483 15.7585 28.5713 15.0651C27.9841 15.4139 27.3414 15.6594 26.6711 15.7909C26.2204 15.3097 25.6235 14.9908 24.9729 14.8836C24.3224 14.7764 23.6546 14.887 23.0734 15.1982C22.4921 15.5094 22.0298 16.0038 21.7584 16.6046C21.4869 17.2055 21.4214 17.8791 21.572 18.521C20.3821 18.4613 19.2181 18.152 18.1555 17.6133C17.0928 17.0746 16.1554 16.3184 15.4039 15.394C15.1469 15.8372 14.9992 16.3511 14.9992 16.8984C14.9989 17.3911 15.1202 17.8762 15.3524 18.3108C15.5846 18.7454 15.9205 19.1159 16.3302 19.3895C15.855 19.3744 15.3903 19.246 14.9748 19.015V19.0536C14.9747 19.7446 15.2138 20.4144 15.6513 20.9492C16.0889 21.4841 16.698 21.8511 17.3753 21.9879C16.9345 22.1072 16.4724 22.1248 16.0238 22.0393C16.2149 22.6339 16.5871 23.1538 17.0884 23.5264C17.5897 23.8989 18.195 24.1053 18.8194 24.1168C17.7594 24.9489 16.4503 25.4003 15.1026 25.3983C14.8639 25.3984 14.6254 25.3844 14.3883 25.3565C15.7562 26.2361 17.3486 26.7028 18.9749 26.701C24.48 26.701 27.4895 22.1415 27.4895 18.187C27.4895 18.0585 27.4863 17.9288 27.4805 17.8003C28.0659 17.3769 28.5712 16.8527 28.9728 16.2522L28.974 16.2502Z" fill="#FCFCFC"/>
</svg>
