<svg width="22" height="22" viewBox="0 0 22 22" fill="none" xmlns="http://www.w3.org/2000/svg">
<path d="M21.2795 12.32C21.5262 12.563 21.5157 12.695 21.2742 12.9282C20.4492 13.7277 19.6392 14.549 18.827 15.365C18.6882 15.5045 18.5877 15.6117 18.3905 15.413C15.948 12.9505 13.501 10.493 11.0495 8.04046C9.55497 6.55846 8.05972 5.07721 6.56372 3.59671C6.41972 3.45496 6.43622 3.35896 6.57197 3.22171C7.44347 2.35871 8.31072 1.49096 9.17372 0.618463C9.33422 0.455713 9.43247 0.484212 9.57797 0.631212C10.6415 1.70921 11.709 2.78421 12.7805 3.85621C13.0707 4.13671 13.3595 4.41946 13.652 4.69696C13.769 4.80796 13.8597 4.96096 14.0487 4.96771C15.4962 3.52371 16.9427 2.07846 18.3882 0.631963C18.5495 0.469963 18.6515 0.447462 18.8255 0.623712C19.6542 1.46548 20.4936 2.2968 21.3432 3.11746C21.5645 3.32971 21.542 3.44446 21.3365 3.64696C19.9775 4.98721 18.6402 6.34696 17.2737 7.68196C16.9925 7.95571 17.0247 8.08996 17.2857 8.34571C18.626 9.66046 19.94 11.0037 21.2795 12.32ZM10.9482 13.9647C10.9339 13.9381 10.9171 13.913 10.898 13.8897C8.47747 11.4687 6.05772 9.04646 3.63872 6.62296C3.45422 6.43846 3.34697 6.44221 3.16697 6.62296C2.3525 7.45843 1.52743 8.2835 0.691968 9.09796C0.453468 9.32746 0.484968 9.45121 0.703218 9.66646C2.04047 10.9865 3.35522 12.3282 4.69697 13.6415C4.96847 13.9085 4.95947 14.0532 4.69172 14.3165C3.34172 15.644 2.01572 16.9962 0.672468 18.3312C0.475968 18.5262 0.423468 18.6432 0.654468 18.8675C1.49002 19.6814 2.31237 20.5087 3.12122 21.3492C3.31622 21.5517 3.42122 21.5487 3.61847 21.3492C4.53947 20.4077 5.47047 19.4755 6.41147 18.5525C6.92544 17.9985 7.46898 17.4727 8.03972 16.9775L9.21722 18.1505C10.2837 19.2205 11.3492 20.2917 12.4137 21.3642C12.5637 21.5142 12.674 21.5195 12.8262 21.3642C13.6882 20.4947 14.5542 19.6295 15.4242 18.7685C15.563 18.6312 15.5645 18.5352 15.4242 18.3935C13.9292 16.922 12.4372 15.4457 10.9482 13.9647Z" fill="#FCFCFC"/>
</svg>
