<svg width="11" height="13" viewBox="0 0 11 13" fill="none" xmlns="http://www.w3.org/2000/svg">
<path d="M3.60135 5.40203H2.4009V6.60248H3.60135V5.40203ZM6.00225 5.40203H4.8018V6.60248H6.00225V5.40203ZM8.40315 5.40203H7.2027V6.60248H8.40315V5.40203ZM9.6036 1.20045H9.00338V0H7.80293V1.20045H3.00113V0H1.80068V1.20045H1.20045C0.5342 1.20045 0.00600225 1.74065 0.00600225 2.4009L0 10.8041C0 11.1224 0.126476 11.4278 0.351604 11.6529C0.576732 11.878 0.882071 12.0045 1.20045 12.0045H9.6036C10.2639 12.0045 10.8041 11.4643 10.8041 10.8041V2.4009C10.8041 1.74065 10.2639 1.20045 9.6036 1.20045ZM9.6036 10.8041H1.20045V4.20158H9.6036V10.8041Z" fill="#B5B5B5"/>
</svg>
