<svg width="135" height="135" viewBox="0 0 135 135" fill="none" xmlns="http://www.w3.org/2000/svg">
<g clip-path="url(#clip0)">
<mask id="mask0" mask-type="alpha" maskUnits="userSpaceOnUse" x="0" y="0" width="135" height="135">
<rect width="135" height="135" rx="25" fill="#F4F0FF"/>
</mask>
<g mask="url(#mask0)">
<path d="M50.8572 35.5714C50.8572 37.6057 50.4344 39.5372 49.6686 41.2857H68.0001C68.7578 41.2857 69.4846 41.5867 70.0204 42.1226C70.5562 42.6584 70.8572 43.3851 70.8572 44.1429V55.5714H68.0001C64.969 55.5714 62.0621 56.7755 59.9188 58.9188C57.7756 61.0621 56.5715 63.969 56.5715 67V69.8572H45.1429C44.3852 69.8572 43.6584 69.5561 43.1226 69.0203C42.5868 68.4845 42.2858 67.7578 42.2858 67V48.6686C39.5905 49.8477 36.5962 50.1631 33.7144 49.5714V67C33.7144 70.0311 34.9184 72.938 37.0617 75.0812C39.205 77.2245 42.1119 78.4286 45.1429 78.4286H56.5715V89.8571C56.5715 92.8882 57.7756 95.7951 59.9188 97.9384C62.0621 100.082 64.969 101.286 68.0001 101.286H85.4286C84.8445 98.4035 85.1596 95.4115 86.3315 92.7143H68.0001C67.2423 92.7143 66.5156 92.4133 65.9798 91.8775C65.4439 91.3416 65.1429 90.6149 65.1429 89.8571V78.4286H68.0001C71.0311 78.4286 73.938 77.2245 76.0813 75.0812C78.2246 72.938 79.4286 70.0311 79.4286 67V64.1429H90.8572C91.615 64.1429 92.3417 64.4439 92.8775 64.9797C93.4133 65.5155 93.7144 66.2422 93.7144 67V85.3314C96.4095 84.1519 99.404 83.8365 102.286 84.4286V67C102.286 63.969 101.082 61.0621 98.9384 58.9188C96.7952 56.7755 93.8883 55.5714 90.8572 55.5714H79.4286V44.1429C79.4286 41.1118 78.2246 38.2049 76.0813 36.0616C73.938 33.9184 71.0311 32.7143 68.0001 32.7143H50.5715C50.7601 33.64 50.8572 34.5943 50.8572 35.5714ZM70.8572 64.1429V67C70.8572 67.7578 70.5562 68.4845 70.0204 69.0203C69.4846 69.5561 68.7578 69.8572 68.0001 69.8572H65.1429V67C65.1429 66.2422 65.4439 65.5155 65.9798 64.9797C66.5156 64.4439 67.2423 64.1429 68.0001 64.1429H70.8572Z" fill="#5F2EEA" stroke="#5F2EEA" stroke-width="2"/>
<path d="M45.1429 35.5714C45.1429 37.8447 44.2398 40.0249 42.6323 41.6323C41.0249 43.2398 38.8447 44.1429 36.5714 44.1429C34.2981 44.1429 32.118 43.2398 30.5105 41.6323C28.9031 40.0249 28 37.8447 28 35.5714C28 33.2981 28.9031 31.118 30.5105 29.5105C32.118 27.9031 34.2981 27 36.5714 27C38.8447 27 41.0249 27.9031 42.6323 29.5105C44.2398 31.118 45.1429 33.2981 45.1429 35.5714Z" fill="#5F2EEA" stroke="#5F2EEA" stroke-width="2"/>
<path d="M108 98.4283C108 100.702 107.097 102.882 105.489 104.489C103.882 106.097 101.702 107 99.4284 107C97.1551 107 94.9749 106.097 93.3674 104.489C91.76 102.882 90.8569 100.702 90.8569 98.4283C90.8569 96.155 91.76 93.9748 93.3674 92.3674C94.9749 90.7599 97.1551 89.8569 99.4284 89.8569C101.702 89.8569 103.882 90.7599 105.489 92.3674C107.097 93.9748 108 96.155 108 98.4283Z" fill="#5F2EEA" stroke="#5F2EEA" stroke-width="2"/>
<path d="M108 35.5714C108 37.8447 107.097 40.0249 105.489 41.6323C103.882 43.2398 101.702 44.1429 99.4284 44.1429C97.1551 44.1429 94.9749 43.2398 93.3674 41.6323C91.76 40.0249 90.8569 37.8447 90.8569 35.5714C90.8569 33.2981 91.76 31.118 93.3674 29.5105C94.9749 27.9031 97.1551 27 99.4284 27C101.702 27 103.882 27.9031 105.489 29.5105C107.097 31.118 108 33.2981 108 35.5714Z" fill="#5F2EEA" stroke="#5F2EEA" stroke-width="2"/>
<path d="M45.1429 98.4283C45.1429 100.702 44.2398 102.882 42.6323 104.489C41.0249 106.097 38.8447 107 36.5714 107C34.2981 107 32.118 106.097 30.5105 104.489C28.9031 102.882 28 100.702 28 98.4283C28 96.155 28.9031 93.9748 30.5105 92.3674C32.118 90.7599 34.2981 89.8569 36.5714 89.8569C38.8447 89.8569 41.0249 90.7599 42.6323 92.3674C44.2398 93.9748 45.1429 96.155 45.1429 98.4283Z" fill="#5F2EEA" stroke="#5F2EEA" stroke-width="2"/>
</g>
<rect width="136" height="136" transform="translate(-0.5)" fill="#2A00A2"/>
<path d="M55.2618 74.092C55.5858 72.742 55.7478 71.392 55.7478 70.096C55.7478 63.13 50.5638 57.676 43.1658 57.676C35.4438 57.514 29.0178 63.94 29.1798 71.662C29.0178 79.384 35.5518 85.81 43.8138 85.648C47.7558 85.648 51.3198 84.298 54.5058 81.652L51.4818 76.684C49.1598 78.466 46.6758 79.384 44.0298 79.384C40.1418 79.384 37.3878 77.494 36.5238 74.092H55.2618ZM36.5238 68.962C37.3338 65.668 39.8178 63.562 42.8958 63.562C46.0818 63.562 48.6198 65.668 48.6738 68.962H36.5238ZM73.1793 58.27L66.4293 73.39L59.6793 58.27H52.0113L65.2413 85.648H67.6713L80.9013 58.27H73.1793ZM77.1787 71.608C77.0167 79.222 83.6047 85.756 91.4347 85.594C99.2647 85.756 106.015 79.222 105.853 71.608C106.015 63.994 99.3187 57.568 91.4887 57.676C83.6587 57.514 77.0167 63.994 77.1787 71.608ZM98.4007 71.662C98.4007 75.82 95.4307 78.898 91.4887 78.898C87.4387 78.898 84.5767 75.82 84.5767 71.662C84.5767 67.396 87.4387 64.318 91.4887 64.318C95.4307 64.318 98.4007 67.504 98.4007 71.662Z" fill="white"/>
</g>
<defs>
<clipPath id="clip0">
<path d="M0 25C0 11.1929 11.1929 0 25 0H110C123.807 0 135 11.1929 135 25V110C135 123.807 123.807 135 110 135H25C11.1929 135 0 123.807 0 110V25Z" fill="white"/>
</clipPath>
</defs>
</svg>
