<svg width="11" height="13" viewBox="0 0 11 13" fill="none" xmlns="http://www.w3.org/2000/svg">
<path d="M3.60135 5.43352H2.4009V6.63397H3.60135V5.43352ZM6.00225 5.43352H4.8018V6.63397H6.00225V5.43352ZM8.40315 5.43352H7.2027V6.63397H8.40315V5.43352ZM9.6036 1.23194H9.00338V0.0314941H7.80293V1.23194H3.00113V0.0314941H1.80068V1.23194H1.20045C0.5342 1.23194 0.00600225 1.77215 0.00600225 2.43239L0 10.8355C0 11.1539 0.126476 11.4593 0.351604 11.6844C0.576732 11.9095 0.882071 12.036 1.20045 12.036H9.6036C10.2639 12.036 10.8041 11.4958 10.8041 10.8355V2.43239C10.8041 1.77215 10.2639 1.23194 9.6036 1.23194ZM9.6036 10.8355H1.20045V4.23307H9.6036V10.8355Z" fill="#6B657C"/>
</svg>
