<svg width="36" height="36" viewBox="0 0 36 36" fill="none" xmlns="http://www.w3.org/2000/svg">
<path d="M18 28.5003C15.5398 28.5309 13.1051 27.9999 10.881 26.9478C9.15704 26.1066 7.60898 24.9449 6.3195 23.5248C4.95365 22.0564 3.8782 20.3428 3.15 18.4743L3 18.0003L3.1575 17.5263C3.88622 15.6594 4.95935 13.9462 6.321 12.4758C7.61001 11.0557 9.15756 9.89407 10.881 9.05277C13.1051 8.00066 15.5398 7.46969 18 7.50027C20.4602 7.46974 22.8949 8.00071 25.119 9.05277C26.843 9.89387 28.3911 11.0556 29.6805 12.4758C31.0489 13.9421 32.1247 15.6563 32.85 17.5263L33 18.0003L32.8425 18.4743C30.4893 24.6 24.5613 28.6043 18 28.5003ZM18 10.5003C12.8938 10.3403 8.20713 13.3129 6.1755 18.0003C8.2068 22.6879 12.8937 25.6607 18 25.5003C23.1061 25.6599 27.7925 22.6873 29.8245 18.0003C27.7955 13.3106 23.1071 10.3369 18 10.5003ZM18 22.5003C15.836 22.5146 13.9641 20.9963 13.5314 18.8759C13.0988 16.7556 14.2264 14.6253 16.2231 13.7908C18.2197 12.9562 20.5279 13.6505 21.7328 15.448C22.9378 17.2456 22.7031 19.6444 21.1725 21.1743C20.3345 22.0222 19.1921 22.4996 18 22.5003Z" fill="#E01B51"/>
</svg>
