<?xml version="1.0" standalone="no"?>
<!DOCTYPE svg PUBLIC "-//W3C//DTD SVG 20010904//EN"
 "http://www.w3.org/TR/2001/REC-SVG-20010904/DTD/svg10.dtd">
<svg version="1.0" xmlns="http://www.w3.org/2000/svg"
 width="700.000000pt" height="700.000000pt" viewBox="0 0 700.000000 700.000000"
 preserveAspectRatio="xMidYMid meet">
<metadata>
Created by potrace 1.14, written by Peter Selinger 2001-2017
</metadata>
<g transform="translate(0.000000,700.000000) scale(0.100000,-0.100000)"
fill="#000000" stroke="none">
<path d="M1665 4229 c-95 -18 -121 -24 -180 -44 -232 -78 -452 -283 -552 -516
-57 -131 -75 -218 -76 -369 -2 -165 5 -216 45 -338 107 -322 388 -562 743
-635 81 -17 300 -20 395 -5 154 23 350 107 492 211 55 39 66 52 59 65 -12 23
-192 316 -196 320 -2 2 -44 -21 -94 -52 -148 -89 -288 -127 -446 -122 -218 7
-375 96 -458 261 -14 28 -27 61 -28 75 l-4 25 635 0 c349 0 640 4 646 8 28 17
47 274 30 400 -9 70 -39 170 -72 244 -104 227 -303 389 -559 453 -95 24 -299
35 -380 19z m261 -415 c101 -30 185 -98 229 -183 21 -43 26 -61 39 -143 l5
-28 -420 0 c-299 0 -419 3 -419 11 0 30 82 179 121 220 36 38 118 100 139 105
3 0 12 4 20 7 63 27 213 33 286 11z"/>
<path d="M4975 4225 c-301 -48 -575 -251 -715 -530 -71 -141 -95 -258 -93
-445 4 -287 132 -542 368 -730 181 -144 387 -210 635 -205 184 4 306 34 458
115 234 125 414 346 482 593 61 220 41 452 -57 657 -133 277 -395 479 -703
541 -81 16 -283 18 -375 4z m290 -460 c86 -23 141 -53 206 -112 209 -194 208
-566 -3 -759 -52 -49 -154 -99 -218 -110 -91 -14 -132 -12 -238 10 -73 16
-242 136 -242 173 0 6 -3 13 -7 15 -5 2 -16 17 -26 35 -80 145 -80 358 0 518
33 64 134 165 197 195 101 48 228 61 331 35z"/>
<path d="M2430 4194 c0 -1 45 -96 101 -210 56 -115 125 -258 154 -319 29 -60
90 -186 135 -280 45 -93 119 -246 164 -340 383 -794 355 -740 394 -738 17 1
55 2 82 2 l51 1 68 143 c38 78 101 210 141 292 40 83 103 213 140 290 37 77
101 210 143 295 143 296 230 476 299 620 38 80 80 166 94 193 14 26 24 48 22
49 -2 1 -122 2 -266 3 l-264 2 -23 -51 c-12 -28 -59 -134 -105 -236 -45 -102
-93 -210 -107 -240 -14 -30 -40 -89 -58 -130 -18 -41 -45 -102 -60 -135 -15
-33 -45 -100 -67 -150 -22 -49 -42 -92 -44 -94 -2 -2 -13 18 -25 45 -32 76
-44 103 -88 197 -23 49 -41 90 -41 92 0 2 -15 36 -34 77 -18 40 -82 183 -142
318 -59 135 -115 259 -124 275 l-17 30 -261 1 c-144 0 -262 -1 -262 -2z"/>
</g>
</svg>
