<svg width="732" height="231" viewBox="0 0 732 231" fill="none" xmlns="http://www.w3.org/2000/svg">
<g clip-path="url(#clip0)">
<path d="M0 32C0 14.3269 14.3269 0 32 0H700C717.673 0 732 14.3269 732 32V199C732 216.673 717.673 231 700 231H32C14.3269 231 0 216.673 0 199V32Z" fill="url(#paint0_linear)"/>
<path d="M0 32C0 14.3269 14.3269 0 32 0H700C717.673 0 732 14.3269 732 32V199C732 216.673 717.673 231 700 231H32C14.3269 231 0 216.673 0 199V32Z" fill="#181818" fill-opacity="0.5"/>
<g opacity="0.5">
<g opacity="0.1">
<path d="M739.947 168.428C713.451 283.225 599.244 423.533 474.987 376.764C359.781 333.401 428.391 257.714 336.112 190.536C243.833 123.359 118.948 226.921 35.5207 141.216C-12.9027 91.4706 -13.588 6.64806 44.4289 -62.3368C102.446 -131.322 219.165 -184.469 405.55 -170.863C581.613 -158.011 669.06 -89.8605 710.568 -16.5876C752.076 56.6854 747.643 135.082 739.947 168.428Z" stroke="url(#paint1_linear)" stroke-width="1.97342" stroke-miterlimit="10"/>
<path d="M410.42 -160.448C571.923 -148.881 652.726 -86.6904 691.347 -19.4234C729.596 47.4551 726.083 119.176 719.253 150.446C695.64 256.804 590.756 386.972 475.395 346.781C368.876 309.671 428.024 241.35 342.604 180.094C340.166 178.358 337.706 176.742 335.224 175.239C268.02 134.507 185.085 177.613 116.776 159.813C98.2326 154.98 80.7227 145.742 64.9931 129.187C19.7481 81.5661 19.7849 2.98209 73.8569 -60.4873C128.273 -124.214 237.478 -172.693 410.42 -160.448Z" stroke="url(#paint2_linear)" stroke-width="1.97342" stroke-miterlimit="10"/>
<path d="M415.29 -150.034C562.233 -139.752 636.392 -83.5198 672.127 -22.2588C707.117 38.2248 704.626 103.289 698.558 132.463C678.178 230.448 582.293 350.405 475.801 316.797C377.992 285.931 427.861 224.731 349.095 169.652C346.825 168.064 344.524 166.597 342.21 165.222C279.768 128.013 203.721 164.457 141.632 146.342C124.678 141.396 108.685 132.544 94.4645 117.157C52.4049 71.6464 53.1567 -0.684498 103.285 -58.6391C154.101 -117.106 255.789 -160.918 415.29 -150.034Z" stroke="url(#paint3_linear)" stroke-width="1.97342" stroke-miterlimit="10"/>
<path d="M420.161 -139.619C552.544 -130.622 620.225 -80.4346 652.907 -25.0943C684.8 28.9117 683.111 87.389 677.864 114.481C660.514 204.047 573.864 313.827 476.208 286.814C387.14 262.177 427.577 208.255 355.587 159.21C353.482 157.775 351.343 156.453 349.198 155.205C291.515 121.519 222.352 151.285 166.489 132.872C151.123 127.808 136.655 119.337 123.936 105.128C85.0732 61.708 86.529 -4.35014 132.712 -56.7899C179.928 -109.998 274.102 -149.143 420.161 -139.619Z" stroke="url(#paint4_linear)" stroke-width="1.97342" stroke-miterlimit="10"/>
<path d="M425.031 -129.204C542.871 -121.721 603.938 -77.2895 633.686 -27.9291C662.364 19.658 661.591 71.4877 657.169 96.4998C642.824 177.64 565.476 277.231 476.614 256.832C396.324 238.401 427.274 191.794 362.078 148.768C360.137 147.487 358.162 146.309 356.184 145.188C303.263 115.026 240.978 138.091 191.345 119.403C177.566 114.215 164.634 106.12 153.408 93.0994C117.756 51.7475 119.772 -8.11672 162.14 -54.9395C205.622 -102.995 292.433 -137.624 425.031 -129.204Z" stroke="url(#paint5_linear)" stroke-width="1.97342" stroke-miterlimit="10"/>
<path d="M429.902 -118.789C533.183 -112.628 587.646 -74.1438 614.466 -30.7644C639.921 10.4066 640.063 55.5827 636.475 78.5179C625.1 151.221 557.143 240.599 477.021 226.849C405.556 214.585 426.95 175.352 368.57 138.326C366.792 137.199 364.98 136.164 363.171 135.171C315.01 108.532 259.602 124.866 216.202 105.932C204.007 100.613 192.627 92.8899 182.88 81.0697C150.464 41.7562 153.126 -11.8005 191.568 -53.0905C231.43 -95.9065 310.747 -125.897 429.902 -118.789Z" stroke="url(#paint6_linear)" stroke-width="1.97342" stroke-miterlimit="10"/>
<path d="M434.771 -108.374C523.493 -103.52 571.342 -70.9942 595.245 -33.5996C617.464 1.15956 618.523 39.6744 615.78 60.5359C607.333 124.791 548.876 203.903 477.427 196.865C414.845 190.701 426.597 158.939 375.061 127.883C373.446 126.91 371.799 126.019 370.158 125.153C326.758 102.038 278.23 111.599 241.057 92.4618C230.448 87.0002 220.635 79.6453 212.352 69.0399C183.208 31.7267 186.489 -15.4784 220.995 -51.2416C257.246 -88.8128 329.06 -114.158 434.771 -108.374Z" stroke="url(#paint7_linear)" stroke-width="1.97342" stroke-miterlimit="10"/>
<path d="M439.641 -97.9599C513.802 -94.3916 555.021 -67.8392 576.025 -36.4354C594.99 -8.08044 596.965 23.7618 595.086 42.5534C589.504 98.3484 540.575 170.246 477.833 166.882C424.283 164.012 426.206 142.569 381.552 117.441C380.099 116.623 378.617 115.875 377.145 115.135C338.504 95.5429 296.874 98.2778 265.913 78.9907C256.893 73.3721 248.663 66.3828 241.823 57.0096C216.013 21.6463 219.864 -19.1482 250.423 -49.3932C283.075 -81.7103 347.371 -102.4 439.641 -97.9599Z" stroke="url(#paint8_linear)" stroke-width="1.97342" stroke-miterlimit="10"/>
<path d="M444.512 -87.5451C504.108 -85.2312 538.671 -64.6702 556.805 -39.2707C572.486 -17.3053 575.381 7.84599 574.392 24.5715C571.592 71.8962 532.521 130.068 478.24 136.899C433.577 142.521 425.766 126.265 388.044 106.999C386.751 106.339 385.436 105.731 384.132 105.118C350.252 89.0492 315.561 84.8898 290.77 65.5208C283.352 59.7256 276.722 53.103 271.295 44.9804C248.923 11.4985 253.258 -22.8022 279.851 -47.5443C308.922 -74.5932 365.678 -90.6059 444.512 -87.5451Z" stroke="url(#paint9_linear)" stroke-width="1.97342" stroke-miterlimit="10"/>
<path d="M449.382 -77.1302C494.411 -76.0192 522.265 -61.4679 537.584 -42.1059C549.932 -26.5001 553.751 -8.06983 553.697 6.58955C553.555 45.4429 524.263 92.7003 478.646 106.916C442.879 118.063 425.264 110.07 394.535 96.557C393.4 96.0577 392.254 95.5862 391.118 95.1005C362 82.5556 334.338 71.4297 315.626 52.0508C309.838 46.0562 304.82 39.8042 300.766 32.9512C282.017 1.2567 286.678 -26.4312 309.278 -45.6948C334.799 -67.4473 383.983 -78.7438 449.382 -77.1302Z" stroke="url(#paint10_linear)" stroke-width="1.97342" stroke-miterlimit="10"/>
<path d="M479.053 76.933C450.709 94.0176 422.464 94.1045 398.105 85.0828C373.747 76.061 353.277 57.9306 340.482 38.58C314.231 -1.12413 316.692 -27.4483 338.706 -43.8462C360.72 -60.2441 402.288 -66.7162 454.252 -66.7162C506.216 -66.7162 530.667 -41.8051 533.002 -11.3933C535.338 19.0186 515.556 54.9312 479.053 76.933Z" stroke="url(#paint11_linear)" stroke-width="1.97342" stroke-miterlimit="10"/>
</g>
<g opacity="0.3">
<path d="M729.892 408.613C818.733 408.613 890.753 336.593 890.753 247.752C890.753 158.911 818.733 86.8906 729.892 86.8906C641.051 86.8906 569.031 158.911 569.031 247.752C569.031 336.593 641.051 408.613 729.892 408.613Z" fill="url(#paint12_linear)"/>
<path d="M740.039 188.97C828.88 188.97 900.9 116.95 900.9 28.1087C900.9 -60.7325 828.88 -132.752 740.039 -132.752C651.197 -132.752 579.177 -60.7325 579.177 28.1087C579.177 116.95 651.197 188.97 740.039 188.97Z" stroke="#F8F0E4" stroke-width="0.902578" stroke-miterlimit="10"/>
<path d="M38.0029 322.303C126.844 322.303 198.864 250.283 198.864 161.442C198.864 72.6006 126.844 0.580566 38.0029 0.580566C-50.8383 0.580566 -122.858 72.6006 -122.858 161.442C-122.858 250.283 -50.8383 322.303 38.0029 322.303Z" fill="url(#paint13_linear)"/>
<path d="M38.0029 74.5347C98.0215 74.5347 146.676 25.88 146.676 -34.1387C146.676 -94.1573 98.0215 -142.812 38.0029 -142.812C-22.0157 -142.812 -70.6704 -94.1573 -70.6704 -34.1387C-70.6704 25.88 -22.0157 74.5347 38.0029 74.5347Z" fill="url(#paint14_linear)"/>
<path d="M137.54 125.335C137.589 112.276 127.041 101.65 113.982 101.602C100.922 101.553 90.2964 112.101 90.248 125.16C90.1996 138.219 100.747 148.845 113.807 148.894C126.866 148.942 137.492 138.395 137.54 125.335Z" stroke="#F8F0E4" stroke-width="0.902578" stroke-miterlimit="10"/>
<path d="M673.831 -18.3169L648.859 6.64626" stroke="#F8F0E4" stroke-width="0.902578" stroke-miterlimit="10"/>
<path d="M673.831 6.64626L648.859 -18.3169" stroke="#F8F0E4" stroke-width="0.902578" stroke-miterlimit="10"/>
<path d="M673.831 15.623L648.859 40.5949" stroke="#F8F0E4" stroke-width="0.902578" stroke-miterlimit="10"/>
<path d="M673.831 40.5949L648.859 15.623" stroke="#F8F0E4" stroke-width="0.902578" stroke-miterlimit="10"/>
<path d="M673.831 49.5625L648.859 74.5343" stroke="#F8F0E4" stroke-width="0.902578" stroke-miterlimit="10"/>
<path d="M673.831 74.5343L648.859 49.5625" stroke="#F8F0E4" stroke-width="0.902578" stroke-miterlimit="10"/>
</g>
</g>
<path d="M345.895 65.2728C346.426 63.0565 346.692 60.8403 346.692 58.7126C346.692 47.2767 338.182 38.323 326.037 38.323C313.36 38.0571 302.81 48.6065 303.076 61.2835C302.81 73.9605 313.537 84.5099 327.101 84.244C333.572 84.244 339.423 82.0277 344.653 77.6838L339.689 69.528C335.877 72.4535 331.799 73.9605 327.455 73.9605C321.072 73.9605 316.551 70.8578 315.133 65.2728H345.895ZM315.133 56.851C316.463 51.4433 320.541 47.9859 325.594 47.9859C330.824 47.9859 334.991 51.4433 335.079 56.851H315.133ZM375.309 39.2982L364.228 64.1203L353.147 39.2982H340.558L362.278 84.244H366.267L387.986 39.2982H375.309ZM381.875 61.1949C381.609 73.6946 392.424 84.4213 405.279 84.1553C418.133 84.4213 429.214 73.6946 428.948 61.1949C429.214 48.6951 418.222 38.1457 405.367 38.323C392.513 38.0571 381.609 48.6951 381.875 61.1949ZM416.714 61.2835C416.714 68.1096 411.839 73.1627 405.367 73.1627C398.718 73.1627 394.02 68.1096 394.02 61.2835C394.02 54.2801 398.718 49.2271 405.367 49.2271C411.839 49.2271 416.714 54.4574 416.714 61.2835Z" fill="#F7F7FC"/>
<rect x="297" y="98.8882" width="137" height="28.9317" rx="5.10559" fill="#181818"/>
<path d="M312.595 118.59H315.691V114.9H317.257C319.849 114.9 321.847 113.226 321.847 110.796C321.847 108.33 319.903 106.71 317.257 106.71H312.595V118.59ZM315.691 112.2V109.41H317.275C318.139 109.41 318.697 109.95 318.697 110.796C318.697 111.642 318.139 112.2 317.275 112.2H315.691ZM334.525 118.59H337.855L332.455 106.494H331.465L326.065 118.59H329.395L329.827 117.6H334.093L334.525 118.59ZM332.995 115.116H330.925L331.969 112.362L332.995 115.116ZM354.724 118.59L351.592 114.18C352.762 113.46 353.464 112.254 353.464 110.796C353.464 108.33 351.52 106.71 348.874 106.71H344.212V118.59H347.308V114.9H348.586L351.268 118.59H354.724ZM347.308 109.41H348.892C349.756 109.41 350.314 109.95 350.314 110.796C350.314 111.642 349.756 112.2 348.892 112.2H347.308V109.41ZM363.183 118.59H366.279V109.5H369.843V106.71H359.619V109.5H363.183V118.59ZM383.773 106.71V112.65L377.329 106.494H376.339V118.59H379.435V112.56L385.879 118.806H386.869V106.71H383.773ZM394.372 118.59H402.832V115.8H397.468V113.73H401.14V111.138H397.468V109.5H402.616V106.71H394.372V118.59ZM420.402 118.59L417.27 114.18C418.44 113.46 419.142 112.254 419.142 110.796C419.142 108.33 417.198 106.71 414.552 106.71H409.89V118.59H412.986V114.9H414.264L416.946 118.59H420.402ZM412.986 109.41H414.57C415.434 109.41 415.992 109.95 415.992 110.796C415.992 111.642 415.434 112.2 414.57 112.2H412.986V109.41Z" fill="white"/>
<path d="M302.678 158.046C302.748 157.724 302.79 157.416 302.79 157.122C302.79 155.33 301.432 153.972 299.612 153.972C297.666 153.93 296.014 155.596 296.056 157.57C296.056 159.6 297.652 161.154 299.752 161.154C300.802 161.154 301.712 160.79 302.496 160.048L301.796 159.04C301.18 159.586 300.508 159.852 299.794 159.852C298.618 159.852 297.736 159.166 297.554 158.046H302.678ZM297.582 156.898C297.806 155.876 298.59 155.218 299.556 155.218C300.522 155.218 301.306 155.848 301.32 156.898H297.582ZM308.989 154.126L306.987 158.676L304.971 154.126H303.403L306.735 161.154H307.239L310.557 154.126H308.989ZM311.177 157.556C311.135 159.502 312.829 161.196 314.803 161.154C316.805 161.196 318.499 159.502 318.457 157.556C318.499 155.61 316.805 153.93 314.803 153.972C312.829 153.944 311.135 155.582 311.177 157.556ZM316.945 157.57C316.945 158.816 316.021 159.796 314.803 159.796C313.599 159.796 312.675 158.844 312.675 157.57C312.675 156.296 313.599 155.316 314.817 155.316C316.007 155.316 316.945 156.296 316.945 157.57ZM324.164 161H325.648V157.43H327.538C329.4 157.43 330.674 156.24 330.674 154.588C330.674 152.922 329.4 151.76 327.538 151.76H324.164V161ZM325.648 156.114V153.076H327.51C328.56 153.076 329.148 153.692 329.148 154.602C329.148 155.512 328.56 156.114 327.51 156.114H325.648ZM337.538 156.842C337.538 154.994 336.418 153.972 334.724 153.972C333.534 153.972 332.512 154.448 331.826 155.442L332.68 156.31C333.254 155.624 333.814 155.288 334.584 155.288C335.522 155.288 336.054 155.806 336.054 156.758V157.206H334.108C332.554 157.206 331.574 157.976 331.574 159.166C331.574 160.356 332.526 161.154 333.968 161.154C334.906 161.154 335.662 160.832 336.166 160.23V161H337.538V156.842ZM336.054 158.396C336.054 159.334 335.27 160.02 334.276 160.02C333.562 160.02 333.072 159.684 333.072 159.11C333.072 158.55 333.506 158.27 334.29 158.27H336.054V158.396ZM343.518 154.126C343.35 154.084 343.168 154.056 342.958 154.056C342.174 154.056 341.446 154.406 340.956 155.022V154.126H339.584V161H341.054V157.332C341.054 156.114 341.908 155.428 343.07 155.428H343.518V154.126ZM348.922 159.754C348.516 159.796 348.222 159.824 348.012 159.824C347.116 159.824 346.654 159.516 346.654 158.634V155.4H348.698V154.126H346.654V152.32H345.17V154.126H344.05V155.4H345.17V158.76C345.17 160.37 346.122 161.154 347.704 161.154C348.054 161.154 348.46 161.098 348.922 161V159.754ZM356.418 156.702C356.418 155.064 355.452 153.972 353.842 153.972C352.988 153.972 352.302 154.252 351.784 154.798V154.126H350.412V161H351.882V156.898C351.882 155.96 352.54 155.302 353.45 155.302C354.346 155.302 354.948 155.946 354.948 156.898V161H356.418V156.702ZM364.652 158.046C364.722 157.724 364.764 157.416 364.764 157.122C364.764 155.33 363.406 153.972 361.586 153.972C359.64 153.93 357.988 155.596 358.03 157.57C358.03 159.6 359.626 161.154 361.726 161.154C362.776 161.154 363.686 160.79 364.47 160.048L363.77 159.04C363.154 159.586 362.482 159.852 361.768 159.852C360.592 159.852 359.71 159.166 359.528 158.046H364.652ZM359.556 156.898C359.78 155.876 360.564 155.218 361.53 155.218C362.496 155.218 363.28 155.848 363.294 156.898H359.556ZM370.383 154.126C370.215 154.084 370.033 154.056 369.823 154.056C369.039 154.056 368.311 154.406 367.821 155.022V154.126H366.449V161H367.919V157.332C367.919 156.114 368.773 155.428 369.935 155.428H370.383V154.126ZM371.055 159.824C371.671 160.622 372.651 161.154 373.827 161.154C374.555 161.154 375.157 160.972 375.647 160.608C376.137 160.23 376.375 159.712 376.375 159.054C376.375 158.088 375.801 157.528 374.499 156.982L373.841 156.716C373.169 156.436 372.931 156.254 372.931 155.904C372.931 155.47 373.295 155.246 373.869 155.246C374.471 155.246 375.045 155.498 375.479 155.946L376.277 155.036C375.675 154.322 374.891 153.972 373.897 153.972C372.497 153.972 371.475 154.728 371.475 155.96C371.475 156.926 372.049 157.458 373.267 157.962L373.967 158.256C374.639 158.536 374.933 158.704 374.933 159.11C374.933 159.614 374.457 159.88 373.827 159.88C373.099 159.88 372.497 159.53 371.895 158.9L371.055 159.824ZM382.092 161H383.576V157.43H385.466C387.328 157.43 388.602 156.24 388.602 154.588C388.602 152.922 387.328 151.76 385.466 151.76H382.092V161ZM383.576 156.114V153.076H385.438C386.488 153.076 387.076 153.692 387.076 154.602C387.076 155.512 386.488 156.114 385.438 156.114H383.576ZM394.076 154.126C393.908 154.084 393.726 154.056 393.516 154.056C392.732 154.056 392.004 154.406 391.514 155.022V154.126H390.142V161H391.612V157.332C391.612 156.114 392.466 155.428 393.628 155.428H394.076V154.126ZM394.821 157.556C394.779 159.502 396.473 161.196 398.447 161.154C400.449 161.196 402.143 159.502 402.101 157.556C402.143 155.61 400.449 153.93 398.447 153.972C396.473 153.944 394.779 155.582 394.821 157.556ZM400.589 157.57C400.589 158.816 399.665 159.796 398.447 159.796C397.243 159.796 396.319 158.844 396.319 157.57C396.319 156.296 397.243 155.316 398.461 155.316C399.651 155.316 400.589 156.296 400.589 157.57ZM409.177 154.126V155.106C408.673 154.392 407.791 153.972 406.741 153.972C404.837 153.972 403.395 155.414 403.395 157.416C403.395 159.418 404.823 160.86 406.741 160.86C407.693 160.86 408.547 160.51 409.065 159.88V160.37C409.065 161.658 408.253 162.33 407.007 162.33C406.069 162.33 405.369 161.966 404.599 161.35L403.787 162.372C404.613 163.142 405.733 163.674 407.091 163.674C409.177 163.674 410.535 162.456 410.535 160.286V154.126H409.177ZM409.079 157.402C409.079 158.102 408.869 158.634 408.463 159.012C408.057 159.39 407.581 159.572 407.007 159.572C406.405 159.572 405.915 159.376 405.509 158.984C405.103 158.578 404.907 158.06 404.907 157.416C404.907 156.786 405.103 156.268 405.509 155.876C405.915 155.484 406.405 155.288 407.007 155.288C408.141 155.288 409.079 156.002 409.079 157.402ZM416.594 154.126C416.426 154.084 416.244 154.056 416.034 154.056C415.25 154.056 414.522 154.406 414.032 155.022V154.126H412.66V161H414.13V157.332C414.13 156.114 414.984 155.428 416.146 155.428H416.594V154.126ZM423.233 156.842C423.233 154.994 422.113 153.972 420.419 153.972C419.229 153.972 418.207 154.448 417.521 155.442L418.375 156.31C418.949 155.624 419.509 155.288 420.279 155.288C421.217 155.288 421.749 155.806 421.749 156.758V157.206H419.803C418.249 157.206 417.269 157.976 417.269 159.166C417.269 160.356 418.221 161.154 419.663 161.154C420.601 161.154 421.357 160.832 421.861 160.23V161H423.233V156.842ZM421.749 158.396C421.749 159.334 420.965 160.02 419.971 160.02C419.257 160.02 418.767 159.684 418.767 159.11C418.767 158.55 419.201 158.27 419.985 158.27H421.749V158.396ZM435.597 156.702C435.597 155.064 434.631 153.972 433.049 153.972C432.083 153.972 431.229 154.392 430.725 155.05C430.319 154.378 429.591 153.972 428.639 153.972C427.813 153.972 427.141 154.266 426.651 154.77V154.126H425.279V161H426.749V156.912C426.749 155.96 427.365 155.316 428.261 155.316C429.143 155.316 429.703 155.96 429.703 156.912V161H431.173V156.842C431.173 155.96 431.789 155.316 432.685 155.316C433.567 155.316 434.113 155.946 434.113 156.912V161H435.597V156.702ZM330.897 188H336.609V186.67H332.381V178.76H330.897V188ZM344.138 185.046C344.208 184.724 344.25 184.416 344.25 184.122C344.25 182.33 342.892 180.972 341.072 180.972C339.126 180.93 337.474 182.596 337.516 184.57C337.516 186.6 339.112 188.154 341.212 188.154C342.262 188.154 343.172 187.79 343.956 187.048L343.256 186.04C342.64 186.586 341.968 186.852 341.254 186.852C340.078 186.852 339.196 186.166 339.014 185.046H344.138ZM339.042 183.898C339.266 182.876 340.05 182.218 341.016 182.218C341.982 182.218 342.766 182.848 342.78 183.898H339.042ZM351.394 183.842C351.394 181.994 350.274 180.972 348.58 180.972C347.39 180.972 346.368 181.448 345.682 182.442L346.536 183.31C347.11 182.624 347.67 182.288 348.44 182.288C349.378 182.288 349.91 182.806 349.91 183.758V184.206H347.964C346.41 184.206 345.43 184.976 345.43 186.166C345.43 187.356 346.382 188.154 347.824 188.154C348.762 188.154 349.518 187.832 350.022 187.23V188H351.394V183.842ZM349.91 185.396C349.91 186.334 349.126 187.02 348.132 187.02C347.418 187.02 346.928 186.684 346.928 186.11C346.928 185.55 347.362 185.27 348.146 185.27H349.91V185.396ZM357.374 181.126C357.206 181.084 357.024 181.056 356.814 181.056C356.03 181.056 355.302 181.406 354.812 182.022V181.126H353.44V188H354.91V184.332C354.91 183.114 355.764 182.428 356.926 182.428H357.374V181.126ZM364.696 183.702C364.696 182.064 363.73 180.972 362.12 180.972C361.266 180.972 360.58 181.252 360.062 181.798V181.126H358.69V188H360.16V183.898C360.16 182.96 360.818 182.302 361.728 182.302C362.624 182.302 363.226 182.946 363.226 183.898V188H364.696V183.702ZM379.039 178.606L375.161 183.772L371.283 178.606H370.765V188H372.249V182.19L374.909 185.676H375.413L378.059 182.204V188H379.543V178.606H379.039ZM381.266 184.556C381.224 186.502 382.918 188.196 384.892 188.154C386.894 188.196 388.588 186.502 388.546 184.556C388.588 182.61 386.894 180.93 384.892 180.972C382.918 180.944 381.224 182.582 381.266 184.556ZM387.034 184.57C387.034 185.816 386.11 186.796 384.892 186.796C383.688 186.796 382.764 185.844 382.764 184.57C382.764 183.296 383.688 182.316 384.906 182.316C386.096 182.316 387.034 183.296 387.034 184.57ZM394.165 181.126C393.997 181.084 393.815 181.056 393.605 181.056C392.821 181.056 392.093 181.406 391.603 182.022V181.126H390.231V188H391.701V184.332C391.701 183.114 392.555 182.428 393.717 182.428H394.165V181.126ZM401.532 185.046C401.602 184.724 401.644 184.416 401.644 184.122C401.644 182.33 400.286 180.972 398.466 180.972C396.52 180.93 394.868 182.596 394.91 184.57C394.91 186.6 396.506 188.154 398.606 188.154C399.656 188.154 400.566 187.79 401.35 187.048L400.65 186.04C400.034 186.586 399.362 186.852 398.648 186.852C397.472 186.852 396.59 186.166 396.408 185.046H401.532ZM396.436 183.898C396.66 182.876 397.444 182.218 398.41 182.218C399.376 182.218 400.16 182.848 400.174 183.898H396.436Z" fill="white" fill-opacity="0.85"/>
</g>
<defs>
<linearGradient id="paint0_linear" x1="-183" y1="-95.4999" x2="771.5" y2="261" gradientUnits="userSpaceOnUse">
<stop stop-color="#2C0F7E"/>
<stop offset="1" stop-color="#1E0E4E"/>
</linearGradient>
<linearGradient id="paint1_linear" x1="372.5" y1="386" x2="372.5" y2="-173" gradientUnits="userSpaceOnUse">
<stop stop-color="#5F2EEA"/>
<stop offset="1" stop-color="#351888"/>
</linearGradient>
<linearGradient id="paint2_linear" x1="377.833" y1="354.248" x2="377.833" y2="-162.35" gradientUnits="userSpaceOnUse">
<stop stop-color="#5F2EEA"/>
<stop offset="1" stop-color="#351888"/>
</linearGradient>
<linearGradient id="paint3_linear" x1="383.195" y1="322.568" x2="383.195" y2="-151.7" gradientUnits="userSpaceOnUse">
<stop stop-color="#5F2EEA"/>
<stop offset="1" stop-color="#351888"/>
</linearGradient>
<linearGradient id="paint4_linear" x1="388.571" y1="290.98" x2="388.571" y2="-141.051" gradientUnits="userSpaceOnUse">
<stop stop-color="#5F2EEA"/>
<stop offset="1" stop-color="#351888"/>
</linearGradient>
<linearGradient id="paint5_linear" x1="393.923" y1="259.525" x2="393.923" y2="-130.468" gradientUnits="userSpaceOnUse">
<stop stop-color="#5F2EEA"/>
<stop offset="1" stop-color="#351888"/>
</linearGradient>
<linearGradient id="paint6_linear" x1="399.311" y1="228.262" x2="399.311" y2="-119.833" gradientUnits="userSpaceOnUse">
<stop stop-color="#5F2EEA"/>
<stop offset="1" stop-color="#351888"/>
</linearGradient>
<linearGradient id="paint7_linear" x1="404.727" y1="197.304" x2="404.727" y2="-109.196" gradientUnits="userSpaceOnUse">
<stop stop-color="#5F2EEA"/>
<stop offset="1" stop-color="#351888"/>
</linearGradient>
<linearGradient id="paint8_linear" x1="410.189" y1="166.996" x2="410.189" y2="-98.5578" gradientUnits="userSpaceOnUse">
<stop stop-color="#5F2EEA"/>
<stop offset="1" stop-color="#351888"/>
</linearGradient>
<linearGradient id="paint9_linear" x1="415.73" y1="138.026" x2="415.73" y2="-87.9177" gradientUnits="userSpaceOnUse">
<stop stop-color="#5F2EEA"/>
<stop offset="1" stop-color="#351888"/>
</linearGradient>
<linearGradient id="paint10_linear" x1="421.411" y1="112.188" x2="421.411" y2="-77.2821" gradientUnits="userSpaceOnUse">
<stop stop-color="#5F2EEA"/>
<stop offset="1" stop-color="#351888"/>
</linearGradient>
<linearGradient id="paint11_linear" x1="427.341" y1="91.0454" x2="427.341" y2="-66.7162" gradientUnits="userSpaceOnUse">
<stop stop-color="#5F2EEA"/>
<stop offset="1" stop-color="#351888"/>
</linearGradient>
<linearGradient id="paint12_linear" x1="729.892" y1="408.613" x2="729.892" y2="86.8988" gradientUnits="userSpaceOnUse">
<stop stop-color="#40A4FF"/>
<stop offset="1" stop-color="#311996"/>
</linearGradient>
<linearGradient id="paint13_linear" x1="37.9988" y1="322.299" x2="37.9988" y2="0.584708" gradientUnits="userSpaceOnUse">
<stop stop-color="#E12179"/>
<stop offset="1" stop-color="#311996"/>
</linearGradient>
<linearGradient id="paint14_linear" x1="37.9988" y1="74.5327" x2="37.9988" y2="-142.818" gradientUnits="userSpaceOnUse">
<stop stop-color="#E12179"/>
<stop offset="1" stop-color="#311996"/>
</linearGradient>
<clipPath id="clip0">
<path d="M0 32C0 14.3269 14.3269 0 32 0H700C717.673 0 732 14.3269 732 32V199C732 216.673 717.673 231 700 231H32C14.3269 231 0 216.673 0 199V32Z" fill="white"/>
</clipPath>
</defs>
</svg>
