<svg width="732" height="231" viewBox="0 0 732 231" fill="none" xmlns="http://www.w3.org/2000/svg">
<g clip-path="url(#clip0)">
<path d="M0 32C0 14.3269 14.3269 0 32 0H700C717.673 0 732 14.3269 732 32V199C732 216.673 717.673 231 700 231H32C14.3269 231 0 216.673 0 199V32Z" fill="url(#paint0_linear)"/>
<g opacity="0.5">
<g opacity="0.1">
<path d="M739.947 168.428C713.451 283.225 599.244 423.533 474.987 376.764C359.781 333.401 428.391 257.714 336.112 190.536C243.833 123.359 118.948 226.921 35.5207 141.216C-12.9027 91.4706 -13.588 6.64806 44.4289 -62.3368C102.446 -131.322 219.165 -184.469 405.55 -170.863C581.613 -158.011 669.06 -89.8605 710.568 -16.5876C752.076 56.6854 747.643 135.082 739.947 168.428Z" stroke="url(#paint1_linear)" stroke-width="1.97342" stroke-miterlimit="10"/>
<path d="M410.42 -160.448C571.923 -148.881 652.726 -86.6904 691.347 -19.4234C729.596 47.4551 726.083 119.176 719.253 150.446C695.64 256.804 590.756 386.972 475.395 346.781C368.876 309.671 428.024 241.35 342.604 180.094C340.166 178.358 337.706 176.742 335.224 175.239C268.02 134.507 185.085 177.613 116.776 159.813C98.2326 154.98 80.7227 145.742 64.9931 129.187C19.7481 81.5661 19.7849 2.98209 73.8569 -60.4873C128.273 -124.214 237.478 -172.693 410.42 -160.448Z" stroke="url(#paint2_linear)" stroke-width="1.97342" stroke-miterlimit="10"/>
<path d="M415.29 -150.034C562.233 -139.752 636.392 -83.5198 672.127 -22.2588C707.117 38.2248 704.626 103.289 698.558 132.463C678.178 230.448 582.293 350.405 475.801 316.797C377.992 285.931 427.861 224.731 349.095 169.652C346.825 168.064 344.524 166.597 342.21 165.222C279.768 128.013 203.721 164.457 141.632 146.342C124.678 141.396 108.685 132.544 94.4645 117.157C52.4049 71.6464 53.1568 -0.684498 103.285 -58.6391C154.101 -117.106 255.789 -160.918 415.29 -150.034Z" stroke="url(#paint3_linear)" stroke-width="1.97342" stroke-miterlimit="10"/>
<path d="M420.161 -139.619C552.544 -130.622 620.225 -80.4346 652.907 -25.0943C684.8 28.9117 683.111 87.389 677.864 114.481C660.514 204.047 573.864 313.827 476.208 286.814C387.14 262.177 427.577 208.255 355.587 159.21C353.482 157.775 351.343 156.453 349.198 155.205C291.515 121.519 222.352 151.285 166.489 132.872C151.123 127.808 136.655 119.337 123.936 105.128C85.0732 61.708 86.529 -4.35014 132.712 -56.7899C179.928 -109.998 274.102 -149.143 420.161 -139.619Z" stroke="url(#paint4_linear)" stroke-width="1.97342" stroke-miterlimit="10"/>
<path d="M425.031 -129.204C542.871 -121.721 603.938 -77.2895 633.686 -27.9291C662.364 19.658 661.591 71.4877 657.169 96.4998C642.824 177.64 565.476 277.231 476.614 256.832C396.324 238.401 427.274 191.794 362.078 148.768C360.137 147.487 358.162 146.309 356.184 145.188C303.263 115.026 240.978 138.091 191.345 119.403C177.566 114.215 164.634 106.12 153.408 93.0994C117.756 51.7475 119.772 -8.11672 162.14 -54.9395C205.622 -102.995 292.432 -137.624 425.031 -129.204Z" stroke="url(#paint5_linear)" stroke-width="1.97342" stroke-miterlimit="10"/>
<path d="M429.902 -118.789C533.183 -112.628 587.646 -74.1438 614.466 -30.7644C639.921 10.4066 640.063 55.5827 636.475 78.5179C625.1 151.221 557.143 240.599 477.021 226.849C405.556 214.585 426.95 175.352 368.57 138.326C366.792 137.199 364.98 136.164 363.171 135.171C315.01 108.532 259.602 124.866 216.202 105.932C204.007 100.613 192.627 92.8899 182.88 81.0697C150.464 41.7562 153.126 -11.8005 191.568 -53.0905C231.43 -95.9065 310.747 -125.897 429.902 -118.789Z" stroke="url(#paint6_linear)" stroke-width="1.97342" stroke-miterlimit="10"/>
<path d="M434.771 -108.374C523.493 -103.52 571.342 -70.9942 595.245 -33.5996C617.464 1.15956 618.523 39.6744 615.78 60.5359C607.333 124.791 548.876 203.903 477.427 196.865C414.845 190.701 426.597 158.939 375.061 127.883C373.446 126.91 371.799 126.019 370.158 125.153C326.758 102.038 278.23 111.599 241.057 92.4618C230.448 87.0002 220.635 79.6453 212.352 69.0399C183.208 31.7267 186.489 -15.4784 220.995 -51.2416C257.246 -88.8128 329.06 -114.158 434.771 -108.374Z" stroke="url(#paint7_linear)" stroke-width="1.97342" stroke-miterlimit="10"/>
<path d="M439.641 -97.9599C513.802 -94.3916 555.021 -67.8392 576.025 -36.4354C594.99 -8.08044 596.965 23.7618 595.086 42.5534C589.504 98.3484 540.575 170.246 477.833 166.882C424.283 164.012 426.206 142.569 381.552 117.441C380.099 116.623 378.617 115.875 377.145 115.135C338.504 95.5429 296.874 98.2778 265.913 78.9907C256.893 73.3721 248.663 66.3828 241.823 57.0096C216.013 21.6463 219.864 -19.1482 250.423 -49.3932C283.075 -81.7103 347.371 -102.4 439.641 -97.9599Z" stroke="url(#paint8_linear)" stroke-width="1.97342" stroke-miterlimit="10"/>
<path d="M444.512 -87.5451C504.108 -85.2312 538.671 -64.6702 556.805 -39.2707C572.486 -17.3053 575.381 7.84599 574.392 24.5715C571.592 71.8962 532.521 130.068 478.24 136.899C433.577 142.521 425.766 126.265 388.044 106.999C386.751 106.339 385.436 105.731 384.132 105.118C350.252 89.0492 315.561 84.8898 290.77 65.5208C283.352 59.7256 276.722 53.103 271.295 44.9804C248.923 11.4985 253.258 -22.8022 279.851 -47.5443C308.922 -74.5932 365.678 -90.6059 444.512 -87.5451Z" stroke="url(#paint9_linear)" stroke-width="1.97342" stroke-miterlimit="10"/>
<path d="M449.382 -77.1302C494.411 -76.0192 522.265 -61.4679 537.584 -42.1059C549.932 -26.5001 553.751 -8.06983 553.697 6.58955C553.555 45.4429 524.263 92.7003 478.646 106.916C442.879 118.063 425.264 110.07 394.535 96.557C393.4 96.0577 392.254 95.5862 391.118 95.1005C362 82.5556 334.338 71.4297 315.626 52.0508C309.838 46.0562 304.82 39.8042 300.766 32.9512C282.017 1.2567 286.678 -26.4312 309.278 -45.6948C334.799 -67.4473 383.983 -78.7438 449.382 -77.1302Z" stroke="url(#paint10_linear)" stroke-width="1.97342" stroke-miterlimit="10"/>
<path d="M479.053 76.933C450.709 94.0176 422.464 94.1045 398.105 85.0828C373.747 76.061 353.277 57.9306 340.482 38.58C314.231 -1.12413 316.692 -27.4483 338.706 -43.8462C360.72 -60.2441 402.288 -66.7162 454.252 -66.7162C506.216 -66.7162 530.667 -41.8051 533.002 -11.3933C535.338 19.0186 515.556 54.9312 479.053 76.933Z" stroke="url(#paint11_linear)" stroke-width="1.97342" stroke-miterlimit="10"/>
</g>
<g opacity="0.3">
<path d="M729.892 408.613C818.733 408.613 890.753 336.593 890.753 247.752C890.753 158.911 818.733 86.8906 729.892 86.8906C641.051 86.8906 569.031 158.911 569.031 247.752C569.031 336.593 641.051 408.613 729.892 408.613Z" fill="url(#paint12_linear)"/>
<path d="M740.039 188.97C828.88 188.97 900.9 116.95 900.9 28.1087C900.9 -60.7325 828.88 -132.752 740.039 -132.752C651.197 -132.752 579.177 -60.7325 579.177 28.1087C579.177 116.95 651.197 188.97 740.039 188.97Z" stroke="#F8F0E4" stroke-width="0.902578" stroke-miterlimit="10"/>
<path d="M38.0029 322.303C126.844 322.303 198.864 250.283 198.864 161.442C198.864 72.6006 126.844 0.580566 38.0029 0.580566C-50.8382 0.580566 -122.858 72.6006 -122.858 161.442C-122.858 250.283 -50.8382 322.303 38.0029 322.303Z" fill="url(#paint13_linear)"/>
<path d="M38.0029 74.5347C98.0216 74.5347 146.676 25.88 146.676 -34.1387C146.676 -94.1573 98.0216 -142.812 38.0029 -142.812C-22.0157 -142.812 -70.6704 -94.1573 -70.6704 -34.1387C-70.6704 25.88 -22.0157 74.5347 38.0029 74.5347Z" fill="url(#paint14_linear)"/>
<path d="M137.54 125.335C137.589 112.276 127.041 101.65 113.982 101.602C100.922 101.553 90.2964 112.101 90.248 125.16C90.1996 138.219 100.747 148.845 113.807 148.894C126.866 148.942 137.492 138.395 137.54 125.335Z" stroke="#F8F0E4" stroke-width="0.902578" stroke-miterlimit="10"/>
<path d="M673.831 -18.3169L648.859 6.64626" stroke="#F8F0E4" stroke-width="0.902578" stroke-miterlimit="10"/>
<path d="M673.831 6.64626L648.859 -18.3169" stroke="#F8F0E4" stroke-width="0.902578" stroke-miterlimit="10"/>
<path d="M673.831 15.623L648.859 40.5949" stroke="#F8F0E4" stroke-width="0.902578" stroke-miterlimit="10"/>
<path d="M673.831 40.5949L648.859 15.623" stroke="#F8F0E4" stroke-width="0.902578" stroke-miterlimit="10"/>
<path d="M673.831 49.5625L648.859 74.5343" stroke="#F8F0E4" stroke-width="0.902578" stroke-miterlimit="10"/>
<path d="M673.831 74.5343L648.859 49.5625" stroke="#F8F0E4" stroke-width="0.902578" stroke-miterlimit="10"/>
</g>
</g>
<path d="M345.895 65.2728C346.426 63.0565 346.692 60.8403 346.692 58.7126C346.692 47.2767 338.182 38.323 326.037 38.323C313.36 38.0571 302.81 48.6065 303.076 61.2835C302.81 73.9605 313.537 84.5099 327.101 84.244C333.572 84.244 339.423 82.0277 344.653 77.6838L339.689 69.528C335.877 72.4535 331.799 73.9605 327.455 73.9605C321.072 73.9605 316.551 70.8578 315.133 65.2728H345.895ZM315.133 56.851C316.463 51.4433 320.541 47.9859 325.594 47.9859C330.824 47.9859 334.991 51.4433 335.079 56.851H315.133ZM375.309 39.2982L364.228 64.1203L353.147 39.2982H340.558L362.278 84.244H366.267L387.986 39.2982H375.309ZM381.875 61.1949C381.609 73.6946 392.424 84.4213 405.279 84.1553C418.133 84.4213 429.214 73.6946 428.948 61.1949C429.214 48.6951 418.222 38.1457 405.367 38.323C392.513 38.0571 381.609 48.6951 381.875 61.1949ZM416.714 61.2835C416.714 68.1096 411.839 73.1627 405.367 73.1627C398.718 73.1627 394.02 68.1096 394.02 61.2835C394.02 54.2801 398.718 49.2271 405.367 49.2271C411.839 49.2271 416.714 54.4574 416.714 61.2835Z" fill="#F7F7FC"/>
<rect x="297" y="98.8882" width="137" height="28.9317" rx="5.10559" fill="#181818"/>
<path d="M312.595 118.59H315.691V114.9H317.257C319.849 114.9 321.847 113.226 321.847 110.796C321.847 108.33 319.903 106.71 317.257 106.71H312.595V118.59ZM315.691 112.2V109.41H317.275C318.139 109.41 318.697 109.95 318.697 110.796C318.697 111.642 318.139 112.2 317.275 112.2H315.691ZM334.525 118.59H337.855L332.455 106.494H331.465L326.065 118.59H329.395L329.827 117.6H334.093L334.525 118.59ZM332.995 115.116H330.925L331.969 112.362L332.995 115.116ZM354.724 118.59L351.592 114.18C352.762 113.46 353.464 112.254 353.464 110.796C353.464 108.33 351.52 106.71 348.874 106.71H344.212V118.59H347.308V114.9H348.586L351.268 118.59H354.724ZM347.308 109.41H348.892C349.756 109.41 350.314 109.95 350.314 110.796C350.314 111.642 349.756 112.2 348.892 112.2H347.308V109.41ZM363.183 118.59H366.279V109.5H369.843V106.71H359.619V109.5H363.183V118.59ZM383.773 106.71V112.65L377.329 106.494H376.339V118.59H379.435V112.56L385.879 118.806H386.869V106.71H383.773ZM394.371 118.59H402.831V115.8H397.467V113.73H401.139V111.138H397.467V109.5H402.615V106.71H394.371V118.59ZM420.402 118.59L417.27 114.18C418.44 113.46 419.142 112.254 419.142 110.796C419.142 108.33 417.198 106.71 414.552 106.71H409.89V118.59H412.986V114.9H414.264L416.946 118.59H420.402ZM412.986 109.41H414.57C415.434 109.41 415.992 109.95 415.992 110.796C415.992 111.642 415.434 112.2 414.57 112.2H412.986V109.41Z" fill="white"/>
<path d="M302.873 152.76H301.235L298.939 156.778L296.657 152.76H295.005L298.197 158.276V162H299.681V158.276L302.873 152.76ZM302.762 158.556C302.72 160.502 304.414 162.196 306.388 162.154C308.39 162.196 310.084 160.502 310.042 158.556C310.084 156.61 308.39 154.93 306.388 154.972C304.414 154.944 302.72 156.582 302.762 158.556ZM308.53 158.57C308.53 159.816 307.606 160.796 306.388 160.796C305.184 160.796 304.26 159.844 304.26 158.57C304.26 157.296 305.184 156.316 306.402 156.316C307.592 156.316 308.53 157.296 308.53 158.57ZM311.657 159.116C311.657 160.964 312.945 162.154 314.667 162.154C316.347 162.154 317.649 160.964 317.649 159.116V155.126H316.179V159.228C316.179 160.18 315.521 160.796 314.667 160.796C313.771 160.796 313.113 160.18 313.113 159.228V155.126H311.657V159.116ZM319.893 156.512H321.027L321.713 152.76H320.019L319.893 156.512ZM327.72 155.126C327.552 155.084 327.37 155.056 327.16 155.056C326.376 155.056 325.648 155.406 325.158 156.022V155.126H323.786V162H325.256V158.332C325.256 157.114 326.11 156.428 327.272 156.428H327.72V155.126ZM335.087 159.046C335.157 158.724 335.199 158.416 335.199 158.122C335.199 156.33 333.841 154.972 332.021 154.972C330.075 154.93 328.423 156.596 328.465 158.57C328.465 160.6 330.061 162.154 332.161 162.154C333.211 162.154 334.121 161.79 334.905 161.048L334.205 160.04C333.589 160.586 332.917 160.852 332.203 160.852C331.027 160.852 330.145 160.166 329.963 159.046H335.087ZM329.991 157.898C330.215 156.876 330.999 156.218 331.965 156.218C332.931 156.218 333.715 156.848 333.729 157.898H329.991ZM346.267 157.842C346.267 155.994 345.147 154.972 343.453 154.972C342.263 154.972 341.241 155.448 340.555 156.442L341.409 157.31C341.983 156.624 342.543 156.288 343.313 156.288C344.251 156.288 344.783 156.806 344.783 157.758V158.206H342.837C341.283 158.206 340.303 158.976 340.303 160.166C340.303 161.356 341.255 162.154 342.697 162.154C343.635 162.154 344.391 161.832 344.895 161.23V162H346.267V157.842ZM344.783 159.396C344.783 160.334 343.999 161.02 343.005 161.02C342.291 161.02 341.801 160.684 341.801 160.11C341.801 159.55 342.235 159.27 343.019 159.27H344.783V159.396ZM354.319 157.702C354.319 156.064 353.353 154.972 351.743 154.972C350.889 154.972 350.203 155.252 349.685 155.798V155.126H348.313V162H349.783V157.898C349.783 156.96 350.441 156.302 351.351 156.302C352.247 156.302 352.849 156.946 352.849 157.898V162H354.319V157.702ZM366.478 159.046C366.548 158.724 366.59 158.416 366.59 158.122C366.59 156.33 365.232 154.972 363.412 154.972C361.466 154.93 359.814 156.596 359.856 158.57C359.856 160.6 361.452 162.154 363.552 162.154C364.602 162.154 365.512 161.79 366.296 161.048L365.596 160.04C364.98 160.586 364.308 160.852 363.594 160.852C362.418 160.852 361.536 160.166 361.354 159.046H366.478ZM361.382 157.898C361.606 156.876 362.39 156.218 363.356 156.218C364.322 156.218 365.106 156.848 365.12 157.898H361.382ZM372.789 155.126L370.787 159.676L368.771 155.126H367.203L370.535 162.154H371.039L374.357 155.126H372.789ZM374.977 158.556C374.935 160.502 376.629 162.196 378.603 162.154C380.605 162.196 382.299 160.502 382.257 158.556C382.299 156.61 380.605 154.93 378.603 154.972C376.629 154.944 374.935 156.582 374.977 158.556ZM380.745 158.57C380.745 159.816 379.821 160.796 378.603 160.796C377.399 160.796 376.475 159.844 376.475 158.57C376.475 157.296 377.399 156.316 378.617 156.316C379.807 156.316 380.745 157.296 380.745 158.57ZM387.964 162H389.448V158.43H391.338C393.2 158.43 394.474 157.24 394.474 155.588C394.474 153.922 393.2 152.76 391.338 152.76H387.964V162ZM389.448 157.114V154.076H391.31C392.36 154.076 392.948 154.692 392.948 155.602C392.948 156.512 392.36 157.114 391.31 157.114H389.448ZM401.337 157.842C401.337 155.994 400.217 154.972 398.523 154.972C397.333 154.972 396.311 155.448 395.625 156.442L396.479 157.31C397.053 156.624 397.613 156.288 398.383 156.288C399.321 156.288 399.853 156.806 399.853 157.758V158.206H397.907C396.353 158.206 395.373 158.976 395.373 160.166C395.373 161.356 396.325 162.154 397.767 162.154C398.705 162.154 399.461 161.832 399.965 161.23V162H401.337V157.842ZM399.853 159.396C399.853 160.334 399.069 161.02 398.075 161.02C397.361 161.02 396.871 160.684 396.871 160.11C396.871 159.55 397.305 159.27 398.089 159.27H399.853V159.396ZM407.317 155.126C407.149 155.084 406.967 155.056 406.757 155.056C405.973 155.056 405.245 155.406 404.755 156.022V155.126H403.383V162H404.853V158.332C404.853 157.114 405.707 156.428 406.869 156.428H407.317V155.126ZM412.721 160.754C412.315 160.796 412.021 160.824 411.811 160.824C410.915 160.824 410.453 160.516 410.453 159.634V156.4H412.497V155.126H410.453V153.32H408.969V155.126H407.849V156.4H408.969V159.76C408.969 161.37 409.921 162.154 411.503 162.154C411.853 162.154 412.259 162.098 412.721 162V160.754ZM420.217 157.702C420.217 156.064 419.251 154.972 417.641 154.972C416.787 154.972 416.101 155.252 415.583 155.798V155.126H414.211V162H415.681V157.898C415.681 156.96 416.339 156.302 417.249 156.302C418.145 156.302 418.747 156.946 418.747 157.898V162H420.217V157.702ZM428.452 159.046C428.522 158.724 428.564 158.416 428.564 158.122C428.564 156.33 427.206 154.972 425.386 154.972C423.44 154.93 421.788 156.596 421.83 158.57C421.83 160.6 423.426 162.154 425.526 162.154C426.576 162.154 427.486 161.79 428.27 161.048L427.57 160.04C426.954 160.586 426.282 160.852 425.568 160.852C424.392 160.852 423.51 160.166 423.328 159.046H428.452ZM423.356 157.898C423.58 156.876 424.364 156.218 425.33 156.218C426.296 156.218 427.08 156.848 427.094 157.898H423.356ZM434.183 155.126C434.015 155.084 433.833 155.056 433.623 155.056C432.839 155.056 432.111 155.406 431.621 156.022V155.126H430.249V162H431.719V158.332C431.719 157.114 432.573 156.428 433.735 156.428H434.183V155.126ZM434.346 161.076C434.346 161.692 434.836 162.154 435.452 162.154C436.068 162.154 436.53 161.692 436.53 161.076C436.53 160.446 436.068 159.984 435.452 159.984C434.836 159.984 434.346 160.46 434.346 161.076ZM275.964 189H282.208V187.67H277.448V184.744H280.906V183.456H277.448V181.09H282.04V179.76H275.964V189ZM289.842 184.702C289.842 183.064 288.876 181.972 287.266 181.972C286.412 181.972 285.726 182.252 285.208 182.798V182.126H283.836V189H285.306V184.898C285.306 183.96 285.964 183.302 286.874 183.302C287.77 183.302 288.372 183.946 288.372 184.898V189H289.842V184.702ZM289.971 191.548C290.223 191.632 290.545 191.674 290.923 191.674C292.435 191.674 293.359 190.89 293.359 189.28V182.126H291.889V189.154C291.889 190.008 291.455 190.344 290.573 190.344C290.391 190.344 290.195 190.33 289.971 190.302V191.548ZM291.623 179.564C291.623 180.11 292.071 180.53 292.631 180.53C293.177 180.53 293.625 180.11 293.625 179.564C293.625 179.018 293.177 178.584 292.631 178.584C292.071 178.584 291.623 179.018 291.623 179.564ZM295.051 185.556C295.009 187.502 296.703 189.196 298.677 189.154C300.679 189.196 302.373 187.502 302.331 185.556C302.373 183.61 300.679 181.93 298.677 181.972C296.703 181.944 295.009 183.582 295.051 185.556ZM300.819 185.57C300.819 186.816 299.895 187.796 298.677 187.796C297.473 187.796 296.549 186.844 296.549 185.57C296.549 184.296 297.473 183.316 298.691 183.316C299.881 183.316 300.819 184.296 300.819 185.57ZM308.654 182.126L306.624 187.124L304.65 182.126H303.068L305.812 188.692L305.532 189.336C305.196 190.106 304.72 190.344 304.034 190.344C303.922 190.344 303.656 190.33 303.222 190.288V191.534C303.6 191.632 303.978 191.674 304.356 191.674C305.532 191.674 306.302 191.086 306.876 189.784L310.222 182.126H308.654ZM314.913 187.152C315.627 188.398 316.887 189.154 318.399 189.154C320.177 189.154 321.493 188.09 321.493 186.48C321.493 185.262 320.779 184.534 319.281 183.848L318.245 183.372C317.335 182.91 317.013 182.784 316.957 182.056C316.957 181.328 317.573 180.936 318.357 180.936C319.141 180.936 319.813 181.328 320.303 182.056L321.339 181.258C320.765 180.264 319.659 179.606 318.357 179.606C316.761 179.606 315.445 180.6 315.445 182.112C315.445 183.344 316.257 184.058 317.601 184.674L318.623 185.15C319.589 185.598 319.981 185.878 319.981 186.536C319.981 187.32 319.337 187.824 318.385 187.824C317.321 187.824 316.579 187.25 315.963 186.354L314.913 187.152ZM322.859 185.556C322.817 187.502 324.511 189.196 326.485 189.154C328.487 189.196 330.181 187.502 330.139 185.556C330.181 183.61 328.487 181.93 326.485 181.972C324.511 181.944 322.817 183.582 322.859 185.556ZM328.627 185.57C328.627 186.816 327.703 187.796 326.485 187.796C325.281 187.796 324.357 186.844 324.357 185.57C324.357 184.296 325.281 183.316 326.499 183.316C327.689 183.316 328.627 184.296 328.627 185.57ZM342.143 184.702C342.143 183.064 341.177 181.972 339.595 181.972C338.629 181.972 337.775 182.392 337.271 183.05C336.865 182.378 336.137 181.972 335.185 181.972C334.359 181.972 333.687 182.266 333.197 182.77V182.126H331.825V189H333.295V184.912C333.295 183.96 333.911 183.316 334.807 183.316C335.689 183.316 336.249 183.96 336.249 184.912V189H337.719V184.842C337.719 183.96 338.335 183.316 339.231 183.316C340.113 183.316 340.659 183.946 340.659 184.912V189H342.143V184.702ZM350.372 186.046C350.442 185.724 350.484 185.416 350.484 185.122C350.484 183.33 349.126 181.972 347.306 181.972C345.36 181.93 343.708 183.596 343.75 185.57C343.75 187.6 345.346 189.154 347.446 189.154C348.496 189.154 349.406 188.79 350.19 188.048L349.49 187.04C348.874 187.586 348.202 187.852 347.488 187.852C346.312 187.852 345.43 187.166 345.248 186.046H350.372ZM345.276 184.898C345.5 183.876 346.284 183.218 347.25 183.218C348.216 183.218 349 183.848 349.014 184.898H345.276ZM355.658 185.556C355.616 187.502 357.31 189.196 359.284 189.154C361.286 189.196 362.98 187.502 362.938 185.556C362.98 183.61 361.286 181.93 359.284 181.972C357.31 181.944 355.616 183.582 355.658 185.556ZM361.426 185.57C361.426 186.816 360.502 187.796 359.284 187.796C358.08 187.796 357.156 186.844 357.156 185.57C357.156 184.296 358.08 183.316 359.298 183.316C360.488 183.316 361.426 184.296 361.426 185.57ZM366.346 180.866C366.346 179.984 366.794 179.676 367.69 179.676C367.858 179.676 368.054 179.69 368.278 179.718V178.472C368.012 178.388 367.704 178.346 367.326 178.346C365.814 178.346 364.876 179.13 364.876 180.74V182.126H363.896V183.4H364.876V189H366.346V183.4H367.97V182.126H366.346V180.866ZM372.173 184.38C372.117 187.026 374.371 189.196 377.017 189.154C379.635 189.196 381.931 187.026 381.875 184.38C381.931 181.734 379.635 179.564 377.017 179.606C374.385 179.564 372.131 181.734 372.173 184.38ZM380.349 184.366C380.349 186.34 378.921 187.796 377.031 187.796C375.113 187.796 373.713 186.34 373.713 184.366C373.713 182.42 375.113 180.964 377.031 180.964C378.921 180.964 380.349 182.434 380.349 184.366ZM383.489 186.116C383.489 187.964 384.777 189.154 386.499 189.154C388.179 189.154 389.481 187.964 389.481 186.116V182.126H388.011V186.228C388.011 187.18 387.353 187.796 386.499 187.796C385.603 187.796 384.945 187.18 384.945 186.228V182.126H383.489V186.116ZM395.477 182.126C395.309 182.084 395.127 182.056 394.917 182.056C394.133 182.056 393.405 182.406 392.915 183.022V182.126H391.543V189H393.013V185.332C393.013 184.114 393.867 183.428 395.029 183.428H395.477V182.126ZM400.815 189H402.299V185.43H404.189C406.051 185.43 407.325 184.24 407.325 182.588C407.325 180.922 406.051 179.76 404.189 179.76H400.815V189ZM402.299 184.114V181.076H404.161C405.211 181.076 405.799 181.692 405.799 182.602C405.799 183.512 405.211 184.114 404.161 184.114H402.299ZM412.8 182.126C412.632 182.084 412.45 182.056 412.24 182.056C411.456 182.056 410.728 182.406 410.238 183.022V182.126H408.866V189H410.336V185.332C410.336 184.114 411.19 183.428 412.352 183.428H412.8V182.126ZM420.167 186.046C420.237 185.724 420.279 185.416 420.279 185.122C420.279 183.33 418.921 181.972 417.101 181.972C415.155 181.93 413.503 183.596 413.545 185.57C413.545 187.6 415.141 189.154 417.241 189.154C418.291 189.154 419.201 188.79 419.985 188.048L419.285 187.04C418.669 187.586 417.997 187.852 417.283 187.852C416.107 187.852 415.225 187.166 415.043 186.046H420.167ZM415.071 184.898C415.295 183.876 416.079 183.218 417.045 183.218C418.011 183.218 418.795 183.848 418.809 184.898H415.071ZM432.281 184.702C432.281 183.064 431.315 181.972 429.733 181.972C428.767 181.972 427.913 182.392 427.409 183.05C427.003 182.378 426.275 181.972 425.323 181.972C424.497 181.972 423.825 182.266 423.335 182.77V182.126H421.963V189H423.433V184.912C423.433 183.96 424.049 183.316 424.945 183.316C425.827 183.316 426.387 183.96 426.387 184.912V189H427.857V184.842C427.857 183.96 428.473 183.316 429.369 183.316C430.251 183.316 430.797 183.946 430.797 184.912V189H432.281V184.702ZM434.323 189H435.793V182.126H434.323V189ZM434.057 179.564C434.057 180.11 434.505 180.53 435.065 180.53C435.611 180.53 436.059 180.11 436.059 179.564C436.059 179.018 435.611 178.584 435.065 178.584C434.505 178.584 434.057 179.018 434.057 179.564ZM437.848 186.116C437.848 187.964 439.136 189.154 440.858 189.154C442.538 189.154 443.84 187.964 443.84 186.116V182.126H442.37V186.228C442.37 187.18 441.712 187.796 440.858 187.796C439.962 187.796 439.304 187.18 439.304 186.228V182.126H437.848V186.116ZM456.221 184.702C456.221 183.064 455.255 181.972 453.673 181.972C452.707 181.972 451.853 182.392 451.349 183.05C450.943 182.378 450.215 181.972 449.263 181.972C448.437 181.972 447.765 182.266 447.275 182.77V182.126H445.903V189H447.373V184.912C447.373 183.96 447.989 183.316 448.885 183.316C449.767 183.316 450.327 183.96 450.327 184.912V189H451.797V184.842C451.797 183.96 452.413 183.316 453.309 183.316C454.191 183.316 454.737 183.946 454.737 184.912V189H456.221V184.702ZM339.381 207H340.865V203.192H344.533V201.848H340.865V199.09H345.317V197.76H339.381V207ZM352.512 204.046C352.582 203.724 352.624 203.416 352.624 203.122C352.624 201.33 351.266 199.972 349.446 199.972C347.5 199.93 345.848 201.596 345.89 203.57C345.89 205.6 347.486 207.154 349.586 207.154C350.636 207.154 351.546 206.79 352.33 206.048L351.63 205.04C351.014 205.586 350.342 205.852 349.628 205.852C348.452 205.852 347.57 205.166 347.388 204.046H352.512ZM347.416 202.898C347.64 201.876 348.424 201.218 349.39 201.218C350.356 201.218 351.14 201.848 351.154 202.898H347.416ZM359.768 202.842C359.768 200.994 358.648 199.972 356.954 199.972C355.764 199.972 354.742 200.448 354.056 201.442L354.91 202.31C355.484 201.624 356.044 201.288 356.814 201.288C357.752 201.288 358.284 201.806 358.284 202.758V203.206H356.338C354.784 203.206 353.804 203.976 353.804 205.166C353.804 206.356 354.756 207.154 356.198 207.154C357.136 207.154 357.892 206.832 358.396 206.23V207H359.768V202.842ZM358.284 204.396C358.284 205.334 357.5 206.02 356.506 206.02C355.792 206.02 355.302 205.684 355.302 205.11C355.302 204.55 355.736 204.27 356.52 204.27H358.284V204.396ZM365.902 205.754C365.496 205.796 365.202 205.824 364.992 205.824C364.096 205.824 363.634 205.516 363.634 204.634V201.4H365.678V200.126H363.634V198.32H362.15V200.126H361.03V201.4H362.15V204.76C362.15 206.37 363.102 207.154 364.684 207.154C365.034 207.154 365.44 207.098 365.902 207V205.754ZM367.322 204.116C367.322 205.964 368.61 207.154 370.332 207.154C372.012 207.154 373.314 205.964 373.314 204.116V200.126H371.844V204.228C371.844 205.18 371.186 205.796 370.332 205.796C369.436 205.796 368.778 205.18 368.778 204.228V200.126H367.322V204.116ZM379.311 200.126C379.143 200.084 378.961 200.056 378.751 200.056C377.967 200.056 377.239 200.406 376.749 201.022V200.126H375.377V207H376.847V203.332C376.847 202.114 377.701 201.428 378.863 201.428H379.311V200.126ZM386.678 204.046C386.748 203.724 386.79 203.416 386.79 203.122C386.79 201.33 385.432 199.972 383.612 199.972C381.666 199.93 380.014 201.596 380.056 203.57C380.056 205.6 381.652 207.154 383.752 207.154C384.802 207.154 385.712 206.79 386.496 206.048L385.796 205.04C385.18 205.586 384.508 205.852 383.794 205.852C382.618 205.852 381.736 205.166 381.554 204.046H386.678ZM381.582 202.898C381.806 201.876 382.59 201.218 383.556 201.218C384.522 201.218 385.306 201.848 385.32 202.898H381.582ZM387.83 205.824C388.446 206.622 389.426 207.154 390.602 207.154C391.33 207.154 391.932 206.972 392.422 206.608C392.912 206.23 393.15 205.712 393.15 205.054C393.15 204.088 392.576 203.528 391.274 202.982L390.616 202.716C389.944 202.436 389.706 202.254 389.706 201.904C389.706 201.47 390.07 201.246 390.644 201.246C391.246 201.246 391.82 201.498 392.254 201.946L393.052 201.036C392.45 200.322 391.666 199.972 390.672 199.972C389.272 199.972 388.25 200.728 388.25 201.96C388.25 202.926 388.824 203.458 390.042 203.962L390.742 204.256C391.414 204.536 391.708 204.704 391.708 205.11C391.708 205.614 391.232 205.88 390.602 205.88C389.874 205.88 389.272 205.53 388.67 204.9L387.83 205.824Z" fill="white" fill-opacity="0.85"/>
</g>
<defs>
<linearGradient id="paint0_linear" x1="-183" y1="-95.4999" x2="771.5" y2="261" gradientUnits="userSpaceOnUse">
<stop stop-color="#2C0F7E"/>
<stop offset="1" stop-color="#1E0E4E"/>
</linearGradient>
<linearGradient id="paint1_linear" x1="372.5" y1="386" x2="372.5" y2="-173" gradientUnits="userSpaceOnUse">
<stop stop-color="#5F2EEA"/>
<stop offset="1" stop-color="#351888"/>
</linearGradient>
<linearGradient id="paint2_linear" x1="377.833" y1="354.248" x2="377.833" y2="-162.35" gradientUnits="userSpaceOnUse">
<stop stop-color="#5F2EEA"/>
<stop offset="1" stop-color="#351888"/>
</linearGradient>
<linearGradient id="paint3_linear" x1="383.195" y1="322.568" x2="383.195" y2="-151.7" gradientUnits="userSpaceOnUse">
<stop stop-color="#5F2EEA"/>
<stop offset="1" stop-color="#351888"/>
</linearGradient>
<linearGradient id="paint4_linear" x1="388.571" y1="290.98" x2="388.571" y2="-141.051" gradientUnits="userSpaceOnUse">
<stop stop-color="#5F2EEA"/>
<stop offset="1" stop-color="#351888"/>
</linearGradient>
<linearGradient id="paint5_linear" x1="393.923" y1="259.525" x2="393.923" y2="-130.468" gradientUnits="userSpaceOnUse">
<stop stop-color="#5F2EEA"/>
<stop offset="1" stop-color="#351888"/>
</linearGradient>
<linearGradient id="paint6_linear" x1="399.311" y1="228.262" x2="399.311" y2="-119.833" gradientUnits="userSpaceOnUse">
<stop stop-color="#5F2EEA"/>
<stop offset="1" stop-color="#351888"/>
</linearGradient>
<linearGradient id="paint7_linear" x1="404.727" y1="197.304" x2="404.727" y2="-109.196" gradientUnits="userSpaceOnUse">
<stop stop-color="#5F2EEA"/>
<stop offset="1" stop-color="#351888"/>
</linearGradient>
<linearGradient id="paint8_linear" x1="410.189" y1="166.996" x2="410.189" y2="-98.5578" gradientUnits="userSpaceOnUse">
<stop stop-color="#5F2EEA"/>
<stop offset="1" stop-color="#351888"/>
</linearGradient>
<linearGradient id="paint9_linear" x1="415.73" y1="138.026" x2="415.73" y2="-87.9177" gradientUnits="userSpaceOnUse">
<stop stop-color="#5F2EEA"/>
<stop offset="1" stop-color="#351888"/>
</linearGradient>
<linearGradient id="paint10_linear" x1="421.411" y1="112.188" x2="421.411" y2="-77.2821" gradientUnits="userSpaceOnUse">
<stop stop-color="#5F2EEA"/>
<stop offset="1" stop-color="#351888"/>
</linearGradient>
<linearGradient id="paint11_linear" x1="427.341" y1="91.0454" x2="427.341" y2="-66.7162" gradientUnits="userSpaceOnUse">
<stop stop-color="#5F2EEA"/>
<stop offset="1" stop-color="#351888"/>
</linearGradient>
<linearGradient id="paint12_linear" x1="729.892" y1="408.613" x2="729.892" y2="86.8988" gradientUnits="userSpaceOnUse">
<stop stop-color="#40A4FF"/>
<stop offset="1" stop-color="#311996"/>
</linearGradient>
<linearGradient id="paint13_linear" x1="37.9989" y1="322.299" x2="37.9989" y2="0.584708" gradientUnits="userSpaceOnUse">
<stop stop-color="#E12179"/>
<stop offset="1" stop-color="#311996"/>
</linearGradient>
<linearGradient id="paint14_linear" x1="37.9989" y1="74.5327" x2="37.9989" y2="-142.818" gradientUnits="userSpaceOnUse">
<stop stop-color="#E12179"/>
<stop offset="1" stop-color="#311996"/>
</linearGradient>
<clipPath id="clip0">
<path d="M0 32C0 14.3269 14.3269 0 32 0H700C717.673 0 732 14.3269 732 32V199C732 216.673 717.673 231 700 231H32C14.3269 231 0 216.673 0 199V32Z" fill="white"/>
</clipPath>
</defs>
</svg>
